<?xml version="1.0" standalone="no"?>
<!DOCTYPE svg PUBLIC "-//W3C//DTD SVG 20010904//EN"
 "http://www.w3.org/TR/2001/REC-SVG-20010904/DTD/svg10.dtd">
<svg version="1.0" xmlns="http://www.w3.org/2000/svg"
 width="48.000000pt" height="48.000000pt" viewBox="0 0 48.000000 48.000000"
 preserveAspectRatio="xMidYMid meet">
<metadata>
Created by potrace 1.13, written by Peter Selinger 2001-2015
</metadata>
<g transform="translate(0.000000,48.000000) scale(0.100000,-0.100000)"
fill="#000000" stroke="none">
<path d="M323 426 c-14 -17 -26 -23 -44 -19 -20 4 -30 -2 -43 -21 -19 -30 -36
-26 -36 9 0 33 -31 42 -52 14 -17 -20 -19 -20 -42 -5 -24 15 -26 15 -55 -21
-60 -73 -64 -206 -7 -277 l23 -29 33 134 c35 142 45 164 75 153 17 -7 18 -19
12 -180 -6 -190 -8 -184 58 -184 33 0 34 0 64 93 17 50 31 100 31 110 0 10 7
25 15 33 8 9 15 24 15 35 0 12 7 19 20 19 20 0 44 32 33 43 -3 4 0 14 8 23 12
14 8 21 -28 55 -23 21 -47 39 -52 39 -5 0 -18 -11 -28 -24z"/>
</g>
</svg>
