<?xml version="1.0" standalone="no"?>
<!DOCTYPE svg PUBLIC "-//W3C//DTD SVG 20010904//EN"
 "http://www.w3.org/TR/2001/REC-SVG-20010904/DTD/svg10.dtd">
<svg version="1.0" xmlns="http://www.w3.org/2000/svg"
 width="48.000000pt" height="48.000000pt" viewBox="0 0 48.000000 48.000000"
 preserveAspectRatio="xMidYMid meet">
<metadata>
Created by potrace 1.13, written by Peter Selinger 2001-2015
</metadata>
<g transform="translate(0.000000,48.000000) scale(0.100000,-0.100000)"
fill="#000000" stroke="none">
<path d="M149 466 c-38 -13 -92 -66 -121 -119 -25 -44 -32 -109 -18 -166 12
-52 77 -141 118 -160 31 -15 62 -14 62 2 0 6 7 3 16 -8 14 -19 16 -19 46 -2
25 15 29 15 24 2 -4 -12 0 -14 22 -9 80 20 154 96 173 180 20 87 0 153 -64
219 -71 73 -164 95 -258 61z m125 -63 c57 -78 106 -181 106 -223 0 -41 -30
-93 -70 -119 -23 -15 -24 -15 -15 4 6 11 10 52 10 90 0 57 -7 85 -34 148 -18
43 -37 75 -41 70 -15 -14 -67 -156 -74 -199 -5 -26 -2 -55 7 -82 8 -23 12 -42
8 -42 -4 0 -22 15 -40 34 -45 47 -53 113 -21 177 30 60 113 189 122 189 4 0
23 -21 42 -47z m7 -171 c31 -91 19 -165 -32 -193 -34 -18 -70 25 -77 89 -4 50
5 90 41 171 l20 45 14 -28 c8 -16 23 -53 34 -84z"/>
</g>
</svg>
