<?xml version="1.0" standalone="no"?>
<!DOCTYPE svg PUBLIC "-//W3C//DTD SVG 20010904//EN"
 "http://www.w3.org/TR/2001/REC-SVG-20010904/DTD/svg10.dtd">
<svg version="1.0" xmlns="http://www.w3.org/2000/svg"
 width="48.000000pt" height="48.000000pt" viewBox="0 0 48.000000 48.000000"
 preserveAspectRatio="xMidYMid meet">
<metadata>
Created by potrace 1.13, written by Peter Selinger 2001-2015
</metadata>
<g transform="translate(0.000000,48.000000) scale(0.100000,-0.100000)"
fill="#000000" stroke="none">
<path d="M120 273 c-110 -4 -120 -8 -120 -43 0 -17 5 -30 11 -30 5 0 8 -4 4
-10 -3 -5 -3 -21 1 -35 4 -18 13 -25 30 -25 30 0 30 -1 -2 61 -15 27 -24 52
-21 56 4 3 11 -5 17 -18 10 -21 17 -24 55 -21 50 4 49 4 34 35 -10 21 -10 21
5 3 9 -11 16 -24 16 -29 0 -5 17 -7 38 -4 l37 6 -32 -11 c-32 -10 -32 -11 -17
-39 12 -24 21 -29 49 -29 19 0 35 5 35 10 0 11 -59 131 -63 128 -1 -1 -36 -3
-77 -5z"/>
<path d="M60 190 c0 -5 5 -21 12 -35 9 -19 19 -25 47 -27 l36 -1 -32 -4 -33
-4 26 -49 c25 -48 58 -70 105 -70 22 0 23 4 9 31 -8 14 -23 19 -53 21 l-42 1
38 4 c20 2 37 6 37 9 0 3 -8 19 -17 37 -9 18 -18 34 -18 37 -1 3 -7 17 -15 33
-11 23 -19 27 -57 27 -23 0 -43 -4 -43 -10z"/>
</g>
</svg>
