<?xml version="1.0" encoding="utf-8"?>
<!-- Generator: Adobe Illustrator 19.1.0, SVG Export Plug-In . SVG Version: 6.00 Build 0)  -->
<svg version="1.1" id="Layer_1" xmlns="http://www.w3.org/2000/svg" xmlns:xlink="http://www.w3.org/1999/xlink" x="0px" y="0px"
	 viewBox="0 0 960 662.4" style="enable-background:new 0 0 960 662.4;" xml:space="preserve">
<g id="GUIDES">
</g>
<g>
	<path style="fill:#E1CCB8;stroke:#FFFFFF;stroke-miterlimit:10;" d="M584.4,126.4c0,0,2.8-7.4,5.3-8.6c2.5-1.1,7.4-2.8,10.2-5.1
		c2.8-2.3,4.6-4.4,5.8-7.4c1.2-3,2.8-4.4,4.6-5.3c1.9-0.9,6.7-3.9,8.1-3.9c1.4,0,2.3,2.5,0.7,3.5c-1.6,1.1-4.3,3.8-4.9,4.6
		c-0.6,0.7-2.7,2.8-2.5,4.7c0.2,1.8,3.3,1.8,4.9,1.4c1.6-0.5,3.5-1.9,5.8,0c2.3,1.9,4.9,5.4,6.3,5.3c1.4-0.2,2.4-1.1,5.4,0
		c3,1,6.2,4,6.2,4s2.5-5.5,7.4-7.1c4.9-1.6,10-3.3,12.1-4.4c2.1-1.2,5.2-2.2,6.3-1.4c1.1,0.8,0,4.4,1.7,5.5c1.7,1.1,6.6,1.9,9,1.3
		c2.4-0.6,5.4,4,6.8,5.8c1.4,1.9,4,5.1,0.2,5.6c0,0-3.5,2.1-6.3,0.9c-2.8-1.2-4.4-3.3-4.9-0.9c-0.5,2.3-3.7,2.8-5.3,1.6
		c-1.6-1.1-4.2-2.1-5.5,0c-1.3,2.1-2,3.5-4.5,3.5c-2.5,0-4.9-1.9-6.3-0.2c-1.4,1.6-5.1,4.6-6,7.2c-0.9,2.5-3.7-0.2-4.9-1.2
		c-1.2-0.9-3.2-1.2-3.9,2.3c-0.7,3.5-1.9,6.7-3,9.7c-1.2,3-3.8,7.9-3.8,7.9L584.4,126.4z"/>
	<path style="fill:#E1CCB8;stroke:#FFFFFF;stroke-width:0.5;stroke-miterlimit:3.864;" d="M584.4,126.4c0,0,2.8-7.4,5.3-8.6
		c2.5-1.1,7.4-2.8,10.2-5.1c2.8-2.3,4.6-4.4,5.8-7.4c1.2-3,2.8-4.4,4.6-5.3c1.9-0.9,6.7-3.9,8.1-3.9c1.4,0,2.3,2.5,0.7,3.5
		c-1.6,1.1-4.3,3.8-4.9,4.6c-0.6,0.7-2.7,2.8-2.5,4.7c0.2,1.8,3.3,1.8,4.9,1.4c1.6-0.5,3.5-1.9,5.8,0c2.3,1.9,4.9,5.4,6.3,5.3
		c1.4-0.2,2.4-1.1,5.4,0c3,1,6.2,4,6.2,4s2.5-5.5,7.4-7.1c4.9-1.6,10-3.3,12.1-4.4c2.1-1.2,5.2-2.2,6.3-1.4c1.1,0.8,0,4.4,1.7,5.5
		c1.7,1.1,6.6,1.9,9,1.3c2.4-0.6,5.4,4,6.8,5.8c1.4,1.9,4,5.1,0.2,5.6c0,0-3.5,2.1-6.3,0.9c-2.8-1.2-4.4-3.3-4.9-0.9
		c-0.5,2.3-3.7,2.8-5.3,1.6c-1.6-1.1-4.2-2.1-5.5,0c-1.3,2.1-2,3.5-4.5,3.5c-2.5,0-4.9-1.9-6.3-0.2c-1.4,1.6-5.1,4.6-6,7.2
		c-0.9,2.5-3.7-0.2-4.9-1.2c-1.2-0.9-3.2-1.2-3.9,2.3c-0.7,3.5-1.9,6.7-3,9.7c-1.2,3-3.8,7.9-3.8,7.9L584.4,126.4z"/>
	<path style="fill:#E1CCB8;stroke:#FFFFFF;stroke-miterlimit:10;" d="M368.7,61l-5.3,72.3c57.7,5.2,100.7,5.9,121.2,6
		c-0.1-17.3-4.4-9.7-4.2-20.3c-1.2-14.3,0.9-20-4-26.7c1.6-5.2-1.1-0.3-1.5-13c2.6-7.6-2-10.3-0.6-13
		C426.4,65.1,413.1,65.2,368.7,61"/>
	<path style="fill:#E1CCB8;stroke:#FFFFFF;stroke-width:0.5;stroke-miterlimit:3.864;" d="M368.7,61l-5.3,72.3
		c57.7,5.2,100.7,5.9,121.2,6c-0.1-17.3-4.4-9.7-4.2-20.3c-1.2-14.3,0.9-20-4-26.7c1.6-5.2-1.1-0.3-1.5-13c2.6-7.6-2-10.3-0.6-13
		C426.4,65.1,413.1,65.2,368.7,61z"/>
	<path style="fill:#E1CCB8;stroke:#FFFFFF;stroke-miterlimit:10;" d="M486.7,198l-1.4,0.3c1.1,3.5-4.3,4.4,0.1,6.8
		c3,1.1-2.9,5.7-1.2,13c1.1,6.7-2.7-1.6-6-1.6c-4.3-0.2-4.6-5.4-10.3-3.2c-17,3.7-11.7-4.5-19.8-4.2c-14.3-0.2-52.1-2.3-90.8-5.2
		c3.2-40.1,5.1-57.9,6-70.6c57.7,5.2,100.7,5.9,121.2,6c0,5.4-4,5.2-3.7,9.5c0.3,3.9,5.4,0.6,5.5,6.2L486.7,198z"/>
	<path style="fill:#E1CCB8;stroke:#FFFFFF;stroke-width:0.5;stroke-miterlimit:3.864;" d="M486.7,198l-1.4,0.3
		c1.1,3.5-4.3,4.4,0.1,6.8c3,1.1-2.9,5.7-1.2,13c1.1,6.7-2.7-1.6-6-1.6c-4.3-0.2-4.6-5.4-10.3-3.2c-17,3.7-11.7-4.5-19.8-4.2
		c-14.3-0.2-52.1-2.3-90.8-5.2c3.2-40.1,5.1-57.9,6-70.6c57.7,5.2,100.7,5.9,121.2,6c0,5.4-4,5.2-3.7,9.5c0.3,3.9,5.4,0.6,5.5,6.2
		L486.7,198z"/>
	<path style="fill:#ECB09B;stroke:#FFFFFF;stroke-miterlimit:10;" d="M353.6,251c-23.6-1.7-82.3-9-119.7-16.6l13.5-94.2
		c6.2,1,71.8,13.2,113.9,16.3l0,0c-1,11.3-2.3,26.2-4,47.4L353.6,251z"/>
	<path style="fill:#ECB09B;stroke:#FFFFFF;stroke-width:0.5;stroke-miterlimit:3.864;" d="M353.6,251c-23.6-1.7-82.3-9-119.7-16.6
		l13.5-94.2c6.2,1,71.8,13.2,113.9,16.3l0,0c-1,11.3-2.3,26.2-4,47.4L353.6,251z"/>
	<path style="fill:#ECB09B;stroke:#FFFFFF;stroke-miterlimit:10;" d="M237.1,211.7l9.1-63v0l-1.5,0.1c-1.2-1.7-2.6-3.6-4.8,0.6
		c-0.4,3.7-3.8-2.1-4.4-0.7c-1.5,0.7-5.8-1.2-8.6,0.1c-2.4,0.6-7-1-9.1,0.8c-0.1,0.2-0.7,1-0.7,1c-5.3-1.9-1-10.9-5.4-12.1
		c-1.4-0.8-2.8-1-3.8-0.2c0.4-10.8-3.4-13.5-2.9-17.8c0.2-2.7-1.4-6.5-4.4-3.2c-2.3,3-9.2-0.7-6-4c1.3-1.4,5.4-2.8,2.9-3.6
		c-0.6-1.3-0.9-7.6,1.8-11.9c2.1-3.5,6.1-6.8,1.8-6.5c-2.4,0-3.6-3.8-5.7-4.5c-1.5-13.8-8.6-13.7-8.9-18.8c0.5-7-2.5-7-2.8-11.1
		c0.5-4.1,4.8-24.7,4.8-24.7c-5.2-1.6-10.8-2-14.1-3.1L159,96.8c1.1,2.1,2.2,5.1,2.2,5.1c1.4,1.1,1.4,0.4,2.2,3.5
		c1.4,5.4-6.1,10.4-6.6,14.4c-8.8,8.2-8.2,11.7-11.2,13.9c-1.6,3.8,4.7,5.1,3.9,7.8c-0.5,3.5-3.5,4.4-4.2,6.8
		c-0.8,2.4-8.4,40.9-8.4,40.9L237.1,211.7z"/>
	<path style="fill:#ECB09B;stroke:#FFFFFF;stroke-width:0.5;stroke-miterlimit:3.864;" d="M237.1,211.7l9.1-63v0l-1.5,0.1
		c-1.2-1.7-2.6-3.6-4.8,0.6c-0.4,3.7-3.8-2.1-4.4-0.7c-1.5,0.7-5.8-1.2-8.6,0.1c-2.4,0.6-7-1-9.1,0.8c-0.1,0.2-0.7,1-0.7,1
		c-5.3-1.9-1-10.9-5.4-12.1c-1.4-0.8-2.8-1-3.8-0.2c0.4-10.8-3.4-13.5-2.9-17.8c0.2-2.7-1.4-6.5-4.4-3.2c-2.3,3-9.2-0.7-6-4
		c1.3-1.4,5.4-2.8,2.9-3.6c-0.6-1.3-0.9-7.6,1.8-11.9c2.1-3.5,6.1-6.8,1.8-6.5c-2.4,0-3.6-3.8-5.7-4.5c-1.5-13.8-8.6-13.7-8.9-18.8
		c0.5-7-2.5-7-2.8-11.1c0.5-4.1,4.8-24.7,4.8-24.7c-5.2-1.6-10.8-2-14.1-3.1L159,96.8c1.1,2.1,2.2,5.1,2.2,5.1
		c1.4,1.1,1.4,0.4,2.2,3.5c1.4,5.4-6.1,10.4-6.6,14.4c-8.8,8.2-8.2,11.7-11.2,13.9c-1.6,3.8,4.7,5.1,3.9,7.8
		c-0.5,3.5-3.5,4.4-4.2,6.8c-0.8,2.4-8.4,40.9-8.4,40.9L237.1,211.7z"/>
	<path style="fill:#E1CCB8;stroke:#FFFFFF;stroke-miterlimit:10;" d="M502.6,276.1c0.1-1.6-3.5-2.5-3-5.7c0.4-2-0.4-3-1.3-3.9
		c34.1,0.6,66.7-2.2,71.2-2.4c0.6,2.3,3.4,3.8,4,5.7c-1.9,20,14.6,21.4,14.9,29c-0.5,4.3,0.1,6.5,3.3,4.6c3.2-1.9,5.8-2.1,7.1,2.6
		c1.9,7.6-3.7,7.3-3.1,12.2c1.7,7,11.2,7.5,12.2,9.9c1.4,4.1,5.4,3.5,4.7,8.4c1.1,5.9-1.9,2.7-1,4.9c0.8,2.2,5.8,8.9,6.3,5.1
		c0-1.4-0.3-1.6,1.4,1.9c-1.3,2.2,4.4,9.7-4,8.2c0,1.6-0.6,1.6-3,1.1c-2.7-0.5,2.7,2.4,0.3,4.6c-2.9,3.5,1.7,7.6-1.5,9.7l-13,0.1
		c11.3-12,1.9-4.6,4.5-11.4l-83.3,0.7l-0.5-57.6c0.5-4.3-4.6-5.7-4.7-7.8c-0.3-3-4.6-4.3-3-6.2c2.4-3.5,2.1-6.8-1.9-6.2
		c-3.3,0.3-2.8-4.6-5.2-4.8L502.6,276.1z"/>
	<path style="fill:#E1CCB8;stroke:#FFFFFF;stroke-width:0.5;stroke-miterlimit:3.864;" d="M502.6,276.1c0.1-1.6-3.5-2.5-3-5.7
		c0.4-2-0.4-3-1.3-3.9c34.1,0.6,66.7-2.2,71.2-2.4c0.6,2.3,3.4,3.8,4,5.7c-1.9,20,14.6,21.4,14.9,29c-0.5,4.3,0.1,6.5,3.3,4.6
		c3.2-1.9,5.8-2.1,7.1,2.6c1.9,7.6-3.7,7.3-3.1,12.2c1.7,7,11.2,7.5,12.2,9.9c1.4,4.1,5.4,3.5,4.7,8.4c1.1,5.9-1.9,2.7-1,4.9
		c0.8,2.2,5.8,8.9,6.3,5.1c0-1.4-0.3-1.6,1.4,1.9c-1.3,2.2,4.4,9.7-4,8.2c0,1.6-0.6,1.6-3,1.1c-2.7-0.5,2.7,2.4,0.3,4.6
		c-2.9,3.5,1.7,7.6-1.5,9.7l-13,0.1c11.3-12,1.9-4.6,4.5-11.4l-83.3,0.7l-0.5-57.6c0.5-4.3-4.6-5.7-4.7-7.8c-0.3-3-4.6-4.3-3-6.2
		c2.4-3.5,2.1-6.8-1.9-6.2c-3.3,0.3-2.8-4.6-5.2-4.8L502.6,276.1z"/>
	<path style="fill:#E1CCB8;stroke:#FFFFFF;stroke-miterlimit:10;" d="M573.4,269.9c-0.6-1.9-3.4-3.4-4-5.6c-4.5,0.2-37,3-71.2,2.4
		l0,0c-1.2-1.1-2.5-1.9-1.8-3.8c1.3-7.7-3-4.8-0.5-9.6c-2.2-1.3-0.4-5-3-7.7c-3.4-2.7,1.4-8.1-4.2-14c-2.2-2.8-0.4-3.2-5-10.9l0,0
		c0.6,0.3,0.8-0.2,0.4-2.5c-1.7-7.3,4.2-11.9,1.2-13c-4.3-2.4,1.1-3.3-0.1-6.8l1.3-0.3c34.9,0,82.2-1.8,87.1-1.8
		c1.5,0,0,1.6,1.8,2.8c3.7,2.8-1.1,2.2,0.6,10.4c2.2,7.6,8.7,6.2,9,8.9c0,3.4,3.5,3.2,3.6,4.7c1.1,3.8,8.9,3,5.5,10.5
		c-3.5,5.4-1.5,8.5-6.2,8.6c-17.5,4.6-1.8,12.2-7.9,15.4c-1.9,1.2,1.7,2.4-2.2,5.8c-6.2,1.8-2.3,4.6-3,6
		C574.6,271.7,573.9,270.7,573.4,269.9"/>
	<path style="fill:#E1CCB8;stroke:#FFFFFF;stroke-width:0.5;stroke-miterlimit:3.864;" d="M573.4,269.9c-0.6-1.9-3.4-3.4-4-5.6
		c-4.5,0.2-37,3-71.2,2.4l0,0c-1.2-1.1-2.5-1.9-1.8-3.8c1.3-7.7-3-4.8-0.5-9.6c-2.2-1.3-0.4-5-3-7.7c-3.4-2.7,1.4-8.1-4.2-14
		c-2.2-2.8-0.4-3.2-5-10.9l0,0c0.6,0.3,0.8-0.2,0.4-2.5c-1.7-7.3,4.2-11.9,1.2-13c-4.3-2.4,1.1-3.3-0.1-6.8l1.3-0.3
		c34.9,0,82.2-1.8,87.1-1.8c1.5,0,0,1.6,1.8,2.8c3.7,2.8-1.1,2.2,0.6,10.4c2.2,7.6,8.7,6.2,9,8.9c0,3.4,3.5,3.2,3.6,4.7
		c1.1,3.8,8.9,3,5.5,10.5c-3.5,5.4-1.5,8.5-6.2,8.6c-17.5,4.6-1.8,12.2-7.9,15.4c-1.9,1.2,1.7,2.4-2.2,5.8c-6.2,1.8-2.3,4.6-3,6
		C574.6,271.7,573.9,270.7,573.4,269.9z"/>
	<path style="fill:#E1CCB8;stroke:#FFFFFF;stroke-miterlimit:10;" d="M486.7,198c34.9,0,82.2-1.8,87.1-1.8
		c-0.1-16.1-10.9-11.1-11.4-17.9c0.4-4.3-12.6-6.2-14.3-10.3c-1.6-0.8-2.3-1.8-1.1-3.1c-1-6.3-0.2-13,1.2-13.8
		c2.7-1.2-6.5-3.6-3.7-6.6c1.9-3.4,4.3-6.4,8.2-9.3l-0.1-13.1c1.2-1.9,5.2-6.1,6.2-6.6c3.2-1.2,2.8-3.7,3.8-3.5
		c3.2-1.9,7.6-10.3,19-18.8c6.3-2.8,9.5-6.6,10.8-6.2c-1.9-0.5-3.1-0.6-3.9-0.2c-4.2-3.9-11.5,0.8-15.4-3.4
		c-2.8-2.7-4.9,7.6-12.3,1.6c-4.2-3.6-8.8-5.7-9-3.4l-0.4,1.8c-3.6,0.2-3-3.6-6.8-3.6c-4.3-0.6-4.9,0.2-5.3-2.3
		c-0.6-3.8-9.6,0.8-11.6,0.4c-1.6,0.7-2.3-5.5-5.6-2.9c-1.5,0.8-1.9-3-7.5-1.7c-3.6,0.4-0.1-11.8-6-11.4l0,4.9
		c-9.9,0.1-28.8-0.2-34.4-0.3c-1.3,2.7,3.3,5.4,0.6,13c0.4,12.7,3,7.8,1.5,13c4.9,6.7,2.8,12.4,4,26.8c-0.2,10.6,4.1,2.9,4.2,20.3
		c0,5.4-4,5.2-3.7,9.5c0.3,3.9,5.4,0.6,5.5,6.2L486.7,198z"/>
	<path style="fill:#E1CCB8;stroke:#FFFFFF;stroke-width:0.5;stroke-miterlimit:3.864;" d="M486.7,198c34.9,0,82.2-1.8,87.1-1.8
		c-0.1-16.1-10.9-11.1-11.4-17.9c0.4-4.3-12.6-6.2-14.3-10.3c-1.6-0.8-2.3-1.8-1.1-3.1c-1-6.3-0.2-13,1.2-13.8
		c2.7-1.2-6.5-3.6-3.7-6.6c1.9-3.4,4.3-6.4,8.2-9.3l-0.1-13.1c1.2-1.9,5.2-6.1,6.2-6.6c3.2-1.2,2.8-3.7,3.8-3.5
		c3.2-1.9,7.6-10.3,19-18.8c6.3-2.8,9.5-6.6,10.8-6.2c-1.9-0.5-3.1-0.6-3.9-0.2c-4.2-3.9-11.5,0.8-15.4-3.4
		c-2.8-2.7-4.9,7.6-12.3,1.6c-4.2-3.6-8.8-5.7-9-3.4l-0.4,1.8c-3.6,0.2-3-3.6-6.8-3.6c-4.3-0.6-4.9,0.2-5.3-2.3
		c-0.6-3.8-9.6,0.8-11.6,0.4c-1.6,0.7-2.3-5.5-5.6-2.9c-1.5,0.8-1.9-3-7.5-1.7c-3.6,0.4-0.1-11.8-6-11.4l0,4.9
		c-9.9,0.1-28.8-0.2-34.4-0.3c-1.3,2.7,3.3,5.4,0.6,13c0.4,12.7,3,7.8,1.5,13c4.9,6.7,2.8,12.4,4,26.8c-0.2,10.6,4.1,2.9,4.2,20.3
		c0,5.4-4,5.2-3.7,9.5c0.3,3.9,5.4,0.6,5.5,6.2L486.7,198z"/>
	<path style="fill:#E1CCB8;stroke:#FFFFFF;stroke-miterlimit:10;" d="M585.2,218.2c-0.3-2.7-6.8-1.3-9-8.9c-1.7-8.2,3-7.6-0.6-10.4
		c-1.8-1.2-0.3-2.8-1.8-2.8c-0.1-16.1-10.9-11.1-11.4-17.9c0.4-4.3-12.6-6.2-14.3-10.3c-1.6-0.8-2.3-1.8-1.1-3.1
		c-1-6.3-0.2-13,1.2-13.8c2.7-1.2-6.5-3.6-3.7-6.6c1.9-3.4,4.3-6.4,8.2-9.3l-0.1-13.1c0.1-0.6,0.5,0.6,1.6-0.8
		c0.5-0.7,0.6-0.6,1.3-0.6c6.1,0.1,12-4.8,16.3-5.4c3.8-0.9,4.6-4.1,5.9-2.8c1.1,0.8-0.9,3.4-2.4,5.4c-0.8,1.1,1.9-0.6-0.2,3.8
		c1.1,3.8,2.1-3,4.3-1.1c2.5,3.5,3.3,0.5,4.6,0.5c1.1,1.6,3.8,2.1,3.3,4.3c-0.3,2.2-0.5,2.9,3.8,2.7c5.9-0.3,18.4,6.6,24.6,5.7
		c10-2.5,3.3,3.2,5.7,4c2.4,0.2,4-0.8,4.1,6.2c0,1.9-1.9,2.2-1.6,3.8c2.2,0,3.5-1.7,3.5,3.2c0,4.9,3-0.6,1.9,4.3
		c-2.4,2.5-5.6,7.1-5.6,10.6c0,3.5,1.9,3.5,3,0.8c1.1-2.7,8.3-12.8,7.8-4.9c-0.5,7.8-8.7,21.4-3.4,47.1c1.1,2.7,1.1,4.1,0.9,6.7
		L585.2,218.2z"/>
	<path style="fill:#E1CCB8;stroke:#FFFFFF;stroke-width:0.5;stroke-miterlimit:3.864;" d="M585.2,218.2c-0.3-2.7-6.8-1.3-9-8.9
		c-1.7-8.2,3-7.6-0.6-10.4c-1.8-1.2-0.3-2.8-1.8-2.8c-0.1-16.1-10.9-11.1-11.4-17.9c0.4-4.3-12.6-6.2-14.3-10.3
		c-1.6-0.8-2.3-1.8-1.1-3.1c-1-6.3-0.2-13,1.2-13.8c2.7-1.2-6.5-3.6-3.7-6.6c1.9-3.4,4.3-6.4,8.2-9.3l-0.1-13.1
		c0.1-0.6,0.5,0.6,1.6-0.8c0.5-0.7,0.6-0.6,1.3-0.6c6.1,0.1,12-4.8,16.3-5.4c3.8-0.9,4.6-4.1,5.9-2.8c1.1,0.8-0.9,3.4-2.4,5.4
		c-0.8,1.1,1.9-0.6-0.2,3.8c1.1,3.8,2.1-3,4.3-1.1c2.5,3.5,3.3,0.5,4.6,0.5c1.1,1.6,3.8,2.1,3.3,4.3c-0.3,2.2-0.5,2.9,3.8,2.7
		c5.9-0.3,18.4,6.6,24.6,5.7c10-2.5,3.3,3.2,5.7,4c2.4,0.2,4-0.8,4.1,6.2c0,1.9-1.9,2.2-1.6,3.8c2.2,0,3.5-1.7,3.5,3.2
		c0,4.9,3-0.6,1.9,4.3c-2.4,2.5-5.6,7.1-5.6,10.6c0,3.5,1.9,3.5,3,0.8c1.1-2.7,8.3-12.8,7.8-4.9c-0.5,7.8-8.7,21.4-3.4,47.1
		c1.1,2.7,1.1,4.1,0.9,6.7L585.2,218.2z"/>
	<path style="fill:#E1CCB8;stroke:#FFFFFF;stroke-miterlimit:10;" d="M619,348.4c-1.6-3.5-1.4-3.2-1.4-1.9c-0.5,3.8-5.4-2.9-6.3-5.1
		c-0.8-2.1,2.2,1.1,1-4.9c0.8-4.9-3.3-4.3-4.7-8.3c-1.1-2.4-10.6-2.9-12.2-9.9c-0.6-4.9,5.1-4.6,3.1-12.2c-1.2-4.7-3.8-4.6-7.1-2.6
		c-3.2,1.9-3.8-0.2-3.3-4.6c-0.3-7.6-16.8-9.1-14.9-29c0.5,0.8,1.2,1.8,1.7-0.7c0.7-1.4-3.2-4.2,3-6c3.9-3.4,0.4-4.6,2.3-5.8
		c6.1-3.2-9.7-10.8,7.8-15.4c4.6,0,2.7-3.1,6.2-8.6c3.4-7.5-4.4-6.7-5.5-10.5c0-1.5-3.5-1.3-3.6-4.7l47-2.5c-1,8.9,3.9,8.1,4.2,13.5
		c0,1.9,1.1,3.8,1.9,4.6l4.2,51.6c0.6,3,0.9,5.4-1,7.3c-1.9,1.9,3.4,4.3,3.6,7.8c0.3,5.1-3.2,7.3-3.2,9.2c0,3-4.3,3.8-4,6.5
		c0.8,1.3,1.1,3-1.6,3.8c-0.8,2.2,0,5.4,0.1,6.5c0,1.1-2.4,3.5-1.6,4.3c0.8,0.8,3.5,1.6,0.3,3c-3.2,1.4-6.7,3.3-5.4,4.6
		c1.4,1.3,2.5,2.3,1.1,5.7c-1.3,3.2-6-6.4-11.1-0.4C618.5,346.2,621.6,348.1,619,348.4"/>
	<path style="fill:#E1CCB8;stroke:#FFFFFF;stroke-width:0.5;stroke-miterlimit:3.864;" d="M619,348.4c-1.6-3.5-1.4-3.2-1.4-1.9
		c-0.5,3.8-5.4-2.9-6.3-5.1c-0.8-2.1,2.2,1.1,1-4.9c0.8-4.9-3.3-4.3-4.7-8.3c-1.1-2.4-10.6-2.9-12.2-9.9c-0.6-4.9,5.1-4.6,3.1-12.2
		c-1.2-4.7-3.8-4.6-7.1-2.6c-3.2,1.9-3.8-0.2-3.3-4.6c-0.3-7.6-16.8-9.1-14.9-29c0.5,0.8,1.2,1.8,1.7-0.7c0.7-1.4-3.2-4.2,3-6
		c3.9-3.4,0.4-4.6,2.3-5.8c6.1-3.2-9.7-10.8,7.8-15.4c4.6,0,2.7-3.1,6.2-8.6c3.4-7.5-4.4-6.7-5.5-10.5c0-1.5-3.5-1.3-3.6-4.7l47-2.5
		c-1,8.9,3.9,8.1,4.2,13.5c0,1.9,1.1,3.8,1.9,4.6l4.2,51.6c0.6,3,0.9,5.4-1,7.3c-1.9,1.9,3.4,4.3,3.6,7.8c0.3,5.1-3.2,7.3-3.2,9.2
		c0,3-4.3,3.8-4,6.5c0.8,1.3,1.1,3-1.6,3.8c-0.8,2.2,0,5.4,0.1,6.5c0,1.1-2.4,3.5-1.6,4.3c0.8,0.8,3.5,1.6,0.3,3
		c-3.2,1.4-6.7,3.3-5.4,4.6c1.4,1.3,2.5,2.3,1.1,5.7c-1.3,3.2-6-6.4-11.1-0.4C618.5,346.2,621.6,348.1,619,348.4z"/>
	<path style="fill:#E1CCB8;stroke:#FFFFFF;stroke-miterlimit:10;" d="M636.4,326.6c0-1.1-0.8-4.3-0.1-6.5c2.7-0.8,2.4-2.5,1.6-3.8
		c-0.3-2.7,4-3.6,4-6.5c0-1.9,3.5-4.1,3.2-9.2c-0.2-3.5-5.4-5.9-3.6-7.8c1.9-1.9,1.6-4.3,1-7.3l-4.2-51.6c2.2,3.2,7.6,0.8,10.8-2.5
		l35.1-3.8l7,61.3c-2.7,4.9,1.9,0.5,1.4,6.7c-0.5,3-4.9-0.2-5.9,3c-0.8,3-5.4-0.5-5.9,3.6c0.3,5.9-4.3,3.3-3.2,8.4l-3,0.3
		c-0.2,3.3-1.6,7.3-2.9,7.6c-3.8,0.9-2.2-2.1-4.9-1.9c-4.9-0.2-2.4,3-3.8,4.1c-1.6,1.1,1.4,4.3-2.2,0.6c-2.4-0.5-3.8-2.4-4.6-0.5
		c-0.8,1.9-2.1,4.9-2.7,4.6c-0.5-0.3-3.8-4.6-6.5-2.1c-1.6,0.8,0,2.2-2.7,1.9c-1.1-0.8-6-4-4.6,0.9
		C641.3,326.8,640.2,326.6,636.4,326.6"/>
	<path style="fill:#E1CCB8;stroke:#FFFFFF;stroke-width:0.5;stroke-miterlimit:3.864;" d="M636.4,326.6c0-1.1-0.8-4.3-0.1-6.5
		c2.7-0.8,2.4-2.5,1.6-3.8c-0.3-2.7,4-3.6,4-6.5c0-1.9,3.5-4.1,3.2-9.2c-0.2-3.5-5.4-5.9-3.6-7.8c1.9-1.9,1.6-4.3,1-7.3l-4.2-51.6
		c2.2,3.2,7.6,0.8,10.8-2.5l35.1-3.8l7,61.3c-2.7,4.9,1.9,0.5,1.4,6.7c-0.5,3-4.9-0.2-5.9,3c-0.8,3-5.4-0.5-5.9,3.6
		c0.3,5.9-4.3,3.3-3.2,8.4l-3,0.3c-0.2,3.3-1.6,7.3-2.9,7.6c-3.8,0.9-2.2-2.1-4.9-1.9c-4.9-0.2-2.4,3-3.8,4.1
		c-1.6,1.1,1.4,4.3-2.2,0.6c-2.4-0.5-3.8-2.4-4.6-0.5c-0.8,1.9-2.1,4.9-2.7,4.6c-0.5-0.3-3.8-4.6-6.5-2.1c-1.6,0.8,0,2.2-2.7,1.9
		c-1.1-0.8-6-4-4.6,0.9C641.3,326.8,640.2,326.6,636.4,326.6z"/>
	<path style="fill:#B9CEBC;stroke:#FFFFFF;stroke-miterlimit:10;" d="M707.5,225.6l-23.2,1.8l-35.1,3.8c7.5-7.4,12-23.9,4.6-36.5
		c-6.3-9.1,0.2-13-3.4-15.9c-1.6-3.2,4-7.1,2.3-17.3c-0.6-4.3,3.2,0.8,2.1-5.4c5.6-3.3,7.5-9.8,7.5-7.1l0.1,7.6
		c4.9,3.2,0.7-14.6,5-13c1.3,0.5,4.6,0,3.8-2.5c-2.7,0.3-4.1-2.7-2.5-4.8c1.3-1.4-0.3-3.2,3.2-2.5c1.6-1.1,2.4-1.1,5.7,0.5
		c3.3,1.6,3.3,0.5,6,2.7c2.7,2.1,9.2,1.5,11.9,2.6c2.7,1.1,3.3,4.8,3.3,4.8s-3.8,1.7-0.5,4.9c3.3,3.2,5.5,12.4,0.7,15.7
		c-1.1,3.3,1.1,6.5-5.4,7.1c-0.5,3.8-1.3,9,2.8,8.6c2.2,0.3,4.3-0.3,4.6-3.6c0.2-3.2,3.2-6,4.6-6c1.3,0,2.9-5.7,5.9-0.3
		c3,5.4,4.4,5.4,4.1,10c-0.2,4.6,5.2,7.3,3.9,16.2c-1,6.8-4.6,1.7-4.5,7.6c-0.2,4.9-4.3,1.7-4,10.9
		C711.5,222.6,707.1,215.6,707.5,225.6"/>
	<path style="fill:#E1CCB8;stroke:#FFFFFF;stroke-width:0.5;stroke-miterlimit:3.864;" d="M707.5,225.6l-23.2,1.8l-35.1,3.8
		c7.5-7.4,12-23.9,4.6-36.5c-6.3-9.1,0.2-13-3.4-15.9c-1.6-3.2,4-7.1,2.3-17.3c-0.6-4.3,3.2,0.8,2.1-5.4c5.6-3.3,7.5-9.8,7.5-7.1
		l0.1,7.6c4.9,3.2,0.7-14.6,5-13c1.3,0.5,4.6,0,3.8-2.5c-2.7,0.3-4.1-2.7-2.5-4.8c1.3-1.4-0.3-3.2,3.2-2.5c1.6-1.1,2.4-1.1,5.7,0.5
		c3.3,1.6,3.3,0.5,6,2.7c2.7,2.1,9.2,1.5,11.9,2.6c2.7,1.1,3.3,4.8,3.3,4.8s-3.8,1.7-0.5,4.9c3.3,3.2,5.5,12.4,0.7,15.7
		c-1.1,3.3,1.1,6.5-5.4,7.1c-0.5,3.8-1.3,9,2.8,8.6c2.2,0.3,4.3-0.3,4.6-3.6c0.2-3.2,3.2-6,4.6-6c1.3,0,2.9-5.7,5.9-0.3
		c3,5.4,4.4,5.4,4.1,10c-0.2,4.6,5.2,7.3,3.9,16.2c-1,6.8-4.6,1.7-4.5,7.6c-0.2,4.9-4.3,1.7-4,10.9
		C711.5,222.6,707.1,215.6,707.5,225.6z"/>
	<path style="fill:#E1CCB8;stroke:#FFFFFF;stroke-miterlimit:10;" d="M386.1,276.2L386.1,276.2l1.3-22.5c-4.3-0.2-25.2-1.7-33.8-2.7
		l3.8-47.1c38.7,2.9,76.5,5,90.8,5.2c8.1-0.3,2.8,7.8,19.8,4.2c5.7-2.2,6,2.9,10.3,3.2c2.1,0,4.5,3.5,5.6,4.1
		c4.5,7.7,2.8,8.1,5,10.9c5.6,5.9,0.8,11.4,4.2,14c2.6,2.7,0.9,6.4,3,7.7c-2.5,4.7,1.8,1.9,0.5,9.6c-1.3,3.5,3.9,3.2,3,7.7
		c-0.5,3.1,3.2,4,3,5.6l1.2,2.6c1.1,0.1,1.6,1.1,2.1,2.2C455.9,281.9,422.9,280,386.1,276.2"/>
	<path style="fill:#E1CCB8;stroke:#FFFFFF;stroke-width:0.5;stroke-miterlimit:3.864;" d="M386.1,276.2L386.1,276.2l1.3-22.5
		c-4.3-0.2-25.2-1.7-33.8-2.7l3.8-47.1c38.7,2.9,76.5,5,90.8,5.2c8.1-0.3,2.8,7.8,19.8,4.2c5.7-2.2,6,2.9,10.3,3.2
		c2.1,0,4.5,3.5,5.6,4.1c4.5,7.7,2.8,8.1,5,10.9c5.6,5.9,0.8,11.4,4.2,14c2.6,2.7,0.9,6.4,3,7.7c-2.5,4.7,1.8,1.9,0.5,9.6
		c-1.3,3.5,3.9,3.2,3,7.7c-0.5,3.1,3.2,4,3,5.6l1.2,2.6c1.1,0.1,1.6,1.1,2.1,2.2C455.9,281.9,422.9,280,386.1,276.2z"/>
	<path style="fill:#E1CCB8;stroke:#FFFFFF;stroke-miterlimit:10;" d="M386,276.2c36.8,3.8,69.8,5.6,119.7,4.7l0.1,0
		c0.6,1.3,1.3,2.8,3.1,2.6c4-0.6,4.3,2.7,1.9,6.2c-1.6,1.9,2.7,3.2,3,6.2c0,2.2,5.2,3.5,4.7,7.8l0.4,48.5
		c-54.6,0.9-126.1-3.1-137.2-3.5L386,276.2z"/>
	<path style="fill:#E1CCB8;stroke:#FFFFFF;stroke-width:0.5;stroke-miterlimit:3.864;" d="M386,276.2c36.8,3.8,69.8,5.6,119.7,4.7
		l0.1,0c0.6,1.3,1.3,2.8,3.1,2.6c4-0.6,4.3,2.7,1.9,6.2c-1.6,1.9,2.7,3.2,3,6.2c0,2.2,5.2,3.5,4.7,7.8l0.4,48.5
		c-54.6,0.9-126.1-3.1-137.2-3.5L386,276.2z"/>
	<path style="fill:#ECB09B;stroke:#FFFFFF;stroke-miterlimit:10;" d="M254.6,334.7l13.1-94.3c32.7,5.1,70.5,9.6,87.7,10.8
		c8.7,1,27.7,2.3,32.1,2.5l-1.4,24.4l0.1-1.9l-4.2,72.5C326.6,345.4,279.8,338.2,254.6,334.7"/>
	<path style="fill:#ECB09B;stroke:#FFFFFF;stroke-width:0.5;stroke-miterlimit:3.864;" d="M254.6,334.7l13.1-94.3
		c32.7,5.1,70.5,9.6,87.7,10.8c8.7,1,27.7,2.3,32.1,2.5l-1.4,24.4l0.1-1.9l-4.2,72.5C326.6,345.4,279.8,338.2,254.6,334.7z"/>
	<path style="fill:#E1CCB8;stroke:#FFFFFF;stroke-miterlimit:10;" d="M363,347.5c6.1,0.5,12.3,0.9,18.7,1.3
		c11.1,0.4,82.5,4.4,137.2,3.5l0.1,0.1l0.1,9.1l4.3,28.1l0.4,43.3c-11.7-4-13.1-10.4-17.1-6.6c-1.9,2.5-5.7-2.4-8.7-0.5
		c-1.9,4.3-7.3-2.1-10.2,3.9c-0.5,1.6-3.8,1.4-3.5-0.8c-3.3-1.6-3.3-3.2-6-2.9c-2.1,3-3-4.3-5.7,0.9c-0.8,4-2.1,2.7-3,0.6
		c0.5-2.4,0.2-2.7-3.3-2.7c-0.5,2.4-1.3,1.6-2.7,1.6c-1.3,0-1.9-5.1-4.3-1.3c-2.1,1.9-6.7,2.5-4.3-1.3c-2.5-2.1-0.3-4.3-6-3.7
		c-3.8,1.7-6.5-1-7.6,0.3c-3.8,1.4-4.1-2.7-6.5-2.6c-5.9,1.4-0.8-2.4-4.4-4.3c-4.1-2.7-1.3,1.9-5.1-0.2c-8.7,0.1-2.5-4.3-8.7-4.5
		l-0.4-44.6l-53.2-3.7L363,347.5z"/>
	<path style="fill:#E1CCB8;stroke:#FFFFFF;stroke-width:0.5;stroke-miterlimit:3.864;" d="M363,347.5c6.1,0.5,12.3,0.9,18.7,1.3
		c11.1,0.4,82.5,4.4,137.2,3.5l0.1,0.1l0.1,9.1l4.3,28.1l0.4,43.3c-11.7-4-13.1-10.4-17.1-6.6c-1.9,2.5-5.7-2.4-8.7-0.5
		c-1.9,4.3-7.3-2.1-10.2,3.9c-0.5,1.6-3.8,1.4-3.5-0.8c-3.3-1.6-3.3-3.2-6-2.9c-2.1,3-3-4.3-5.7,0.9c-0.8,4-2.1,2.7-3,0.6
		c0.5-2.4,0.2-2.7-3.3-2.7c-0.5,2.4-1.3,1.6-2.7,1.6c-1.3,0-1.9-5.1-4.3-1.3c-2.1,1.9-6.7,2.5-4.3-1.3c-2.5-2.1-0.3-4.3-6-3.7
		c-3.8,1.7-6.5-1-7.6,0.3c-3.8,1.4-4.1-2.7-6.5-2.6c-5.9,1.4-0.8-2.4-4.4-4.3c-4.1-2.7-1.3,1.9-5.1-0.2c-8.7,0.1-2.5-4.3-8.7-4.5
		l-0.4-44.6l-53.2-3.7L363,347.5z"/>
	<path style="fill:#E1CCB8;stroke:#FFFFFF;stroke-miterlimit:10;" d="M523.7,432.7l-0.4-43.3l-4.3-28.1l83.3-0.7
		c-2.6,6.8,6.7-0.6-4.5,11.4l13-0.1l0.6,2.7c-4.3,1.1-0.2,3.2-4.3,4.1c3.8,4.3-5.1,4.6-3.7,11.4c4.4,4-2.7,4.3-2.1,6.8l0.3,1.9
		c-1.9,0.6-2.2,0.6-2.4,2.2c-4,2.7-1.3,6.2-4,9c-1.3,4.9-4.3,4.6-4.3,8.1c-0.5,3-2.7,3.8-2.4,7.9c0.3,4.1-4.3,2.7-3.2,6
		c1.1,3.2,4.6,5.6,2.3,12.7l-55.2,0.5l-0.1-11.4C529.9,432.1,526.1,433.8,523.7,432.7"/>
	<path style="fill:#E1CCB8;stroke:#FFFFFF;stroke-width:0.5;stroke-miterlimit:3.864;" d="M523.7,432.7l-0.4-43.3l-4.3-28.1
		l83.3-0.7c-2.6,6.8,6.7-0.6-4.5,11.4l13-0.1l0.6,2.7c-4.3,1.1-0.2,3.2-4.3,4.1c3.8,4.3-5.1,4.6-3.7,11.4c4.4,4-2.7,4.3-2.1,6.8
		l0.3,1.9c-1.9,0.6-2.2,0.6-2.4,2.2c-4,2.7-1.3,6.2-4,9c-1.3,4.9-4.3,4.6-4.3,8.1c-0.5,3-2.7,3.8-2.4,7.9c0.3,4.1-4.3,2.7-3.2,6
		c1.1,3.2,4.6,5.6,2.3,12.7l-55.2,0.5l-0.1-11.4C529.9,432.1,526.1,433.8,523.7,432.7z"/>
	<path style="fill:#E1CCB8;stroke:#FFFFFF;stroke-miterlimit:10;" d="M587.6,444.6c2.4-7.1-1.2-9.5-2.3-12.7c-1.1-3.3,3.5-1.9,3.2-6
		c-0.3-4.1,1.9-4.9,2.4-7.9c0-3.5,3-3.3,4.3-8.1c2.7-2.7-0.1-6.2,4-9c0.3-1.6,0.5-1.6,2.4-2.2l-0.3-1.9c-0.1-0.6,0.2-1.1,0.7-1.5
		l39.6-2.8l-0.7,73.7l5.7,36.7c-3.8-0.4-1.2,1.5-4.9,1.3c0.1-2.7,0.1-6.6-1.8-1.7c-0.8,1.6-1.6,0.1-6.6,1.1
		c-1.5,0.7-3.8,2.1-4.6,1.7c-0.8-0.4-2.2-1.2-2.3-0.5c-0.1,0.7-2,6.2-4.7,3.7c-1.4-7.4-5.5-5.8-5.5-10.8c0.3-2.4,1.6-3.5,1.6-6.8
		l-34.9,1.6c-0.3-1.2-0.1-2.2-1.1-2.4c-0.9-0.3-0.3-3.1,0.8-3.5c0.9-0.3-0.9-5.3,0.5-4.2l0-4.2l1.3,0c2-8.3,5.1-7.4,5.1-10.1
		c2-3.8,0.8-6.1,3.9-6.5l0-1.1c-2-0.5-0.4-2.7-3.1-3.4c-1.9-5.2,0.4-5.9-2.2-6.2c0.4-2.2,2.5-3,2.4-3.9l-2.7,0L587.6,444.6z"/>
	<path style="fill:#B9CEBC;stroke:#FFFFFF;stroke-width:0.5;stroke-miterlimit:3.864;" d="M587.6,444.6c2.4-7.1-1.2-9.5-2.3-12.7
		c-1.1-3.3,3.5-1.9,3.2-6c-0.3-4.1,1.9-4.9,2.4-7.9c0-3.5,3-3.3,4.3-8.1c2.7-2.7-0.1-6.2,4-9c0.3-1.6,0.5-1.6,2.4-2.2l-0.3-1.9
		c-0.1-0.6,0.2-1.1,0.7-1.5l39.6-2.8l-0.7,73.7l5.7,36.7c-3.8-0.4-1.2,1.5-4.9,1.3c0.1-2.7,0.1-6.6-1.8-1.7
		c-0.8,1.6-1.6,0.1-6.6,1.1c-1.5,0.7-3.8,2.1-4.6,1.7c-0.8-0.4-2.2-1.2-2.3-0.5c-0.1,0.7-2,6.2-4.7,3.7c-1.4-7.4-5.5-5.8-5.5-10.8
		c0.3-2.4,1.6-3.5,1.6-6.8l-34.9,1.6c-0.3-1.2-0.1-2.2-1.1-2.4c-0.9-0.3-0.3-3.1,0.8-3.5c0.9-0.3-0.9-5.3,0.5-4.2l0-4.2l1.3,0
		c2-8.3,5.1-7.4,5.1-10.1c2-3.8,0.8-6.1,3.9-6.5l0-1.1c-2-0.5-0.4-2.7-3.1-3.4c-1.9-5.2,0.4-5.9-2.2-6.2c0.4-2.2,2.5-3,2.4-3.9
		l-2.7,0L587.6,444.6z"/>
	<path style="fill:#E1CCB8;stroke:#FFFFFF;stroke-miterlimit:10;" d="M646.6,503.1l-5.7-36.7l0.7-73.7l46.2-4.6l14.5,49.7
		c3.3,0-0.2,4.6,3.6,7.3c1.6,0.8,0.3,3.5,2.2,4.3c1.9,0.8,1.3,2-1.3,3.8c-1.6,1.1,3,3.8-1,7c3.1,12.1-1,6,2.6,14.6
		c-0.2,3.5,3.3,5.1,2.8,7.3l-50.3,3.9c-2.4,9.5,7.1,8.1,3.9,13.2c-3.7,5.7-5.9,9.3-11,5.2c2.7,0.5,4.6,1,3.2-2.7
		c-2.2,0-3.3-1.3-2.2-3.2c1.1-1.9-1.1-7.6-2.2-4.6c-1.1,3-2.7-0.3-2.1,7.3C650.4,504.7,647.9,501.7,646.6,503.1"/>
	<path style="fill:#B9CEBC;stroke:#FFFFFF;stroke-width:0.5;stroke-miterlimit:3.864;" d="M646.6,503.1l-5.7-36.7l0.7-73.7l46.2-4.6
		l14.5,49.7c3.3,0-0.2,4.6,3.6,7.3c1.6,0.8,0.3,3.5,2.2,4.3c1.9,0.8,1.3,2-1.3,3.8c-1.6,1.1,3,3.8-1,7c3.1,12.1-1,6,2.6,14.6
		c-0.2,3.5,3.3,5.1,2.8,7.3l-50.3,3.9c-2.4,9.5,7.1,8.1,3.9,13.2c-3.7,5.7-5.9,9.3-11,5.2c2.7,0.5,4.6,1,3.2-2.7
		c-2.2,0-3.3-1.3-2.2-3.2c1.1-1.9-1.1-7.6-2.2-4.6c-1.1,3-2.7-0.3-2.1,7.3C650.4,504.7,647.9,501.7,646.6,503.1z"/>
	<path style="fill:#B9CEBC;stroke:#FFFFFF;stroke-miterlimit:10;" d="M711,482c0.5-2.2-3-3.8-2.8-7.3c-3.6-8.6,0.5-2.4-2.6-14.6
		c4-3.3-0.6-5.9,1-7c2.6-1.8,3.2-3,1.3-3.8c-1.9-0.8-0.6-3.5-2.2-4.3c-3.8-2.7-0.3-7.3-3.6-7.3l-14.5-49.6l46.5-5.8
		c-3.5,3.5-4.8,8.7,0.9,11.1c5.7,2.4,4.6-1.6,7.9,5.3c8.5,9.7,9.8,6.4,12.8,11c4.9,9.7,15,10.7,14.7,14.7
		c3.1,10.8,9.8,10.2,9.6,14.8c0.9,6.7,1.4,7.6,3.3,8.1c1.9,0.5-1.1,2.2-1.1,2.4c0,0.3,0,2.2-1.6,2.5c-1.6,0.3,1.6,1.3,1.6,3
		c0,2.7-3,1.4-3,2.7c0.3,1.4,2.2,7-0.2,8.9c0.6,7.3-2.1,8.4-1.3,10.3c-5.7,2.5-6.8-3.7-8.6,0.6c-2.1,3.5,4.4,12.9-2.4,8.7
		c-1.9-2.4-1.4-3.2-6.2-2.9c-4.9,0.3-47.6,3.4-47.6,3.4C711.9,486.6,711.3,485.8,711,482"/>
	<path style="fill:#B9CEBC;stroke:#FFFFFF;stroke-width:0.5;stroke-miterlimit:3.864;" d="M711,482c0.5-2.2-3-3.8-2.8-7.3
		c-3.6-8.6,0.5-2.4-2.6-14.6c4-3.3-0.6-5.9,1-7c2.6-1.8,3.2-3,1.3-3.8c-1.9-0.8-0.6-3.5-2.2-4.3c-3.8-2.7-0.3-7.3-3.6-7.3
		l-14.5-49.6l46.5-5.8c-3.5,3.5-4.8,8.7,0.9,11.1c5.7,2.4,4.6-1.6,7.9,5.3c8.5,9.7,9.8,6.4,12.8,11c4.9,9.7,15,10.7,14.7,14.7
		c3.1,10.8,9.8,10.2,9.6,14.8c0.9,6.7,1.4,7.6,3.3,8.1c1.9,0.5-1.1,2.2-1.1,2.4c0,0.3,0,2.2-1.6,2.5c-1.6,0.3,1.6,1.3,1.6,3
		c0,2.7-3,1.4-3,2.7c0.3,1.4,2.2,7-0.2,8.9c0.6,7.3-2.1,8.4-1.3,10.3c-5.7,2.5-6.8-3.7-8.6,0.6c-2.1,3.5,4.4,12.9-2.4,8.7
		c-1.9-2.4-1.4-3.2-6.2-2.9c-4.9,0.3-47.6,3.4-47.6,3.4C711.9,486.6,711.3,485.8,711,482z"/>
	<path style="fill:#B9CEBC;stroke:#FFFFFF;stroke-miterlimit:10;" d="M734.2,382.3c-3.5,3.5-4.8,8.7,0.9,11.1
		c5.7,2.4,4.6-1.6,7.9,5.3c8.5,9.7,9.8,6.4,12.8,11c5,9.7,15,10.7,14.7,14.8c3.1,10.8,9.8,10.2,9.6,14.8c0.2,1.7,0.4,3,0.6,4.1
		c4.1,0.5,6.6-0.2,5.9-2c-0.8-2.2,1.6-5.4-0.9-6.2c-0.8-0.8-1.9-3.5,3-3.3c4.6,0,8.4-0.3,7.8-2.8c-0.6-2.4,4.9,2.1,4.8-6.3
		c0.3-1.1,0.7-1.3,1.9,0c2.5,2.7,1.6-3,3-2.7c2.7-0.3,0.5-5.7,4-4.9c5.6-4.6,2.7-4.1,2.1-7c1.6,1.1,2.7,0.8,1.9-3.5
		c2.7-2.7,4.2-9.5,8.3-11.2L792.6,371c-9.2,0.9-46.5,4.5-46.5,4.5C742.8,376,738.3,382,734.2,382.3"/>
	<path style="fill:#B9CEBC;stroke:#FFFFFF;stroke-width:0.5;stroke-miterlimit:3.864;" d="M734.2,382.3c-3.5,3.5-4.8,8.7,0.9,11.1
		c5.7,2.4,4.6-1.6,7.9,5.3c8.5,9.7,9.8,6.4,12.8,11c5,9.7,15,10.7,14.7,14.8c3.1,10.8,9.8,10.2,9.6,14.8c0.2,1.7,0.4,3,0.6,4.1
		c4.1,0.5,6.6-0.2,5.9-2c-0.8-2.2,1.6-5.4-0.9-6.2c-0.8-0.8-1.9-3.5,3-3.3c4.6,0,8.4-0.3,7.8-2.8c-0.6-2.4,4.9,2.1,4.8-6.3
		c0.3-1.1,0.7-1.3,1.9,0c2.5,2.7,1.6-3,3-2.7c2.7-0.3,0.5-5.7,4-4.9c5.6-4.6,2.7-4.1,2.1-7c1.6,1.1,2.7,0.8,1.9-3.5
		c2.7-2.7,4.2-9.5,8.3-11.2L792.6,371c-9.2,0.9-46.5,4.5-46.5,4.5C742.8,376,738.3,382,734.2,382.3z"/>
	<path style="fill:#ECB09B;stroke:#FFFFFF;stroke-miterlimit:10;" d="M254.6,334.7c22.3,3.2,61.5,9.1,108.4,12.8l0,0l0.1,12.7
		L354.4,465l-68.5-5.9l0,4.3l-31.7-4.1l-1.5,11.1l-16.5-3.4C243.6,415.6,253.6,340.9,254.6,334.7"/>
	<path style="fill:#ECB09B;stroke:#FFFFFF;stroke-width:0.5;stroke-miterlimit:3.864;" d="M254.6,334.7
		c22.3,3.2,61.5,9.1,108.4,12.8l0,0l0.1,12.7L354.4,465l-68.5-5.9l0,4.3l-31.7-4.1l-1.5,11.1l-16.5-3.4
		C243.6,415.6,253.6,340.9,254.6,334.7z"/>
	<path style="fill:#B9CEBC;stroke:#FFFFFF;stroke-miterlimit:10;" d="M712.8,385l-25,3.1l-46.2,4.6l-39.6,2.8l0,0
		c1.5-1.3,4.7-2.2,1.4-5.3c-1.4-6.7,7.5-7.1,3.7-11.4c4.1-0.8,0-3,4.3-4.1l-0.6-2.7c3.2-2.2-1.4-6.2,1.5-9.7
		c1.2-1.1,0.5-2.3-0.2-3.3l26.7-1.7l0-3.4c46.5-3.1,103.2-11.7,116.7-13.7l0.2,4.2c-5.8,1.5-3.6,8.5-7.9,8.2
		c-4.2-0.5-2.9,4.5-8.5,4.1c-1.8-0.4-3.3,0-3,2.5c0,3.8-5.5,3.7-8.7,7.9c-3.6,3.9-8.2,3.3-8.3,5.5c-1.3,2.2-3.1,2.1-2,5.7
		c0.6,2.6-4.5-2.3-4.6,2.1L712.8,385z"/>
	<path style="fill:#B9CEBC;stroke:#FFFFFF;stroke-width:0.5;stroke-miterlimit:3.864;" d="M712.8,385l-25,3.1l-46.2,4.6l-39.6,2.8
		l0,0c1.5-1.3,4.7-2.2,1.4-5.3c-1.4-6.7,7.5-7.1,3.7-11.4c4.1-0.8,0-3,4.3-4.1l-0.6-2.7c3.2-2.2-1.4-6.2,1.5-9.7
		c1.2-1.1,0.5-2.3-0.2-3.3l26.7-1.7l0-3.4c46.5-3.1,103.2-11.7,116.7-13.7l0.2,4.2c-5.8,1.5-3.6,8.5-7.9,8.2
		c-4.2-0.5-2.9,4.5-8.5,4.1c-1.8-0.4-3.3,0-3,2.5c0,3.8-5.5,3.7-8.7,7.9c-3.6,3.9-8.2,3.3-8.3,5.5c-1.3,2.2-3.1,2.1-2,5.7
		c0.6,2.6-4.5-2.3-4.6,2.1L712.8,385z"/>
	<path style="fill:#B9CEBC;stroke:#FFFFFF;stroke-miterlimit:10;" d="M691.3,288.8c-2.7,4.9,1.9,0.5,1.4,6.7c-0.5,3-4.9-0.2-5.9,3
		c-0.8,3-5.4-0.5-5.9,3.6c0.3,5.9-4.3,3.3-3.2,8.4l-3,0.3c-0.2,3.2-1.6,7.3-2.9,7.6c-3.8,0.8-2.2-2.1-4.9-1.9
		c-4.9-0.2-2.4,3-3.7,4.1c-1.6,1.1,1.4,4.3-2.2,0.6c-2.4-0.5-3.8-2.4-4.6-0.5c-0.8,1.9-2.1,4.9-2.7,4.6c-0.5-0.3-3.8-4.6-6.5-2.1
		c-1.6,0.8,0,2.2-2.7,1.9c-1.1-0.8-6-4-4.6,0.8c1.4,0.8,0.3,0.5-3.5,0.6c0,1.1-2.4,3.5-1.6,4.3c0.8,0.8,3.5,1.6,0.3,3
		c-3.2,1.4-6.7,3.3-5.4,4.6c1.3,1.3,2.5,2.3,1.1,5.7c-1.3,3.3-6-6.4-11.1-0.5c-1.3,2.5,1.8,4.3-0.8,4.6c-1.3,2.2,4.4,9.7-4,8.1
		c0,1.6-0.6,1.6-3,1.1c-2.7-0.5,2.7,2.4,0.3,4.6l-0.2-3.3l26.7-1.7l0-3.4c27.2-1.8,57.9-5.5,81.4-8.7c1.1-2.7,5.4-2.6,6.4-4.5
		c2.1-4.9,4.3-1.1,6.2-5.7c2.4-6.2,14-12.6,13.9-15.5l-1.4-1.6c-6.3,0.1-7.2-5.4-10-8.6c-4.6-2.9-0.9-8.4-4.5-10.8
		c-5.4-1-2.2-3.5-4.6-4c-4.1-0.8-1.6,2.5-5.1,1.7c-1.6,0-0.5,3.3-3.5-0.2c-7.3,1.7-5.2-1.3-9.5-0.5c-2.7-0.5-4.6-2.4-6.2-1.8
		C697.7,284.4,693.7,289,691.3,288.8"/>
	<path style="fill:#B9CEBC;stroke:#FFFFFF;stroke-width:0.5;stroke-miterlimit:3.864;" d="M691.3,288.8c-2.7,4.9,1.9,0.5,1.4,6.7
		c-0.5,3-4.9-0.2-5.9,3c-0.8,3-5.4-0.5-5.9,3.6c0.3,5.9-4.3,3.3-3.2,8.4l-3,0.3c-0.2,3.2-1.6,7.3-2.9,7.6c-3.8,0.8-2.2-2.1-4.9-1.9
		c-4.9-0.2-2.4,3-3.7,4.1c-1.6,1.1,1.4,4.3-2.2,0.6c-2.4-0.5-3.8-2.4-4.6-0.5c-0.8,1.9-2.1,4.9-2.7,4.6c-0.5-0.3-3.8-4.6-6.5-2.1
		c-1.6,0.8,0,2.2-2.7,1.9c-1.1-0.8-6-4-4.6,0.8c1.4,0.8,0.3,0.5-3.5,0.6c0,1.1-2.4,3.5-1.6,4.3c0.8,0.8,3.5,1.6,0.3,3
		c-3.2,1.4-6.7,3.3-5.4,4.6c1.3,1.3,2.5,2.3,1.1,5.7c-1.3,3.3-6-6.4-11.1-0.5c-1.3,2.5,1.8,4.3-0.8,4.6c-1.3,2.2,4.4,9.7-4,8.1
		c0,1.6-0.6,1.6-3,1.1c-2.7-0.5,2.7,2.4,0.3,4.6l-0.2-3.3l26.7-1.7l0-3.4c27.2-1.8,57.9-5.5,81.4-8.7c1.1-2.7,5.4-2.6,6.4-4.5
		c2.1-4.9,4.3-1.1,6.2-5.7c2.4-6.2,14-12.6,13.9-15.5l-1.4-1.6c-6.3,0.1-7.2-5.4-10-8.6c-4.6-2.9-0.9-8.4-4.5-10.8
		c-5.4-1-2.2-3.5-4.6-4c-4.1-0.8-1.6,2.5-5.1,1.7c-1.6,0-0.5,3.3-3.5-0.2c-7.3,1.7-5.2-1.3-9.5-0.5c-2.7-0.5-4.6-2.4-6.2-1.8
		C697.7,284.4,693.7,289,691.3,288.8z"/>
	<path style="fill:#B9CEBC;stroke:#FFFFFF;stroke-miterlimit:10;" d="M822.5,393.4L792.6,371c-9.2,0.9-46.5,4.5-46.5,4.5
		c-3.2,0.6-7.8,6.6-11.9,6.9l-21.5,2.7l0,0l0-4.7c0.1-4.3,5.1,0.5,4.6-2.1c-1.1-3.6,0.6-3.5,2-5.7c0.1-2.2,4.7-1.5,8.3-5.5
		c3.2-4.2,8.8-4.1,8.7-7.9c-0.3-2.4,1.2-2.8,3-2.5c5.6,0.4,4.3-4.6,8.5-4.1c4.3,0.4,2.1-6.6,7.9-8.2l-0.2-4.2
		c22.7-3.4,81-14.2,83.7-15.3c2.4-1.1,3.2-2.5,16.5-3.6c1.1,1.1,2.5,3.6,3.8,5.1c1.6,1.9,1.1,3.2,0,3.8c0.3-0.8-0.3-1.9-0.3-1.9
		c0,1.1-3-1.6-4.3-0.8c0.8,1.6,4.1,2.1,0.3,3.2c-3.8,1.1-4.3,7.4-8.9,3.3c-4.6-4-4.9-4-5.7-0.8c0.6,1.3,3.8-1.4,4.6,2.4
		c0.5,1.3,1.4,2.4-0.2,3.8c-0.4,0.9,0.6,1.5,1.1,0c0.5-1.5,5.7-3.3,7.8-3c2.2,0.5,1.6-1.9,4-1.7c2.7-1.1,0.6,6.5,2.5,6.5
		c2.2-0.3-0.9-6.2,2.4-6.2c1.3-0.6,2.8-0.3,2.7,2.9c-0.2,5.4-4,5.4-3.4,8.4c-2.1,7.1-13,2.5-9.2,0.9c2.4-1.1-5.1-1.3-4,1.1
		c5.7,3.7-9.2-0.2-6.8,1.7c3.8,2.7,12.2,1.8,10.9,5.3c-1.5,8.4-6.2,1.7-8.4,2.8c0,2.4,6,5.4,8.9,1.5c0.8-1.6,2.7-3.8,3.2-1.1
		c0.6,2.7,4.6-1,0,4.3c-3.8,4.4-6.5-0.8-12.4,6.6c-3.8,2.5-4.3,7.1-7,8.4c-9.4,7.6-1.2,12.7-7.2,13
		C827.1,391,826.3,391.5,822.5,393.4"/>
	<path style="fill:#B9CEBC;stroke:#FFFFFF;stroke-width:0.5;stroke-miterlimit:3.864;" d="M822.5,393.4L792.6,371
		c-9.2,0.9-46.5,4.5-46.5,4.5c-3.2,0.6-7.8,6.6-11.9,6.9l-21.5,2.7l0,0l0-4.7c0.1-4.3,5.1,0.5,4.6-2.1c-1.1-3.6,0.6-3.5,2-5.7
		c0.1-2.2,4.7-1.5,8.3-5.5c3.2-4.2,8.8-4.1,8.7-7.9c-0.3-2.4,1.2-2.8,3-2.5c5.6,0.4,4.3-4.6,8.5-4.1c4.3,0.4,2.1-6.6,7.9-8.2
		l-0.2-4.2c22.7-3.4,81-14.2,83.7-15.3c2.4-1.1,3.2-2.5,16.5-3.6c1.1,1.1,2.5,3.6,3.8,5.1c1.6,1.9,1.1,3.2,0,3.8
		c0.3-0.8-0.3-1.9-0.3-1.9c0,1.1-3-1.6-4.3-0.8c0.8,1.6,4.1,2.1,0.3,3.2c-3.8,1.1-4.3,7.4-8.9,3.3c-4.6-4-4.9-4-5.7-0.8
		c0.6,1.3,3.8-1.4,4.6,2.4c0.5,1.3,1.4,2.4-0.2,3.8c-0.4,0.9,0.6,1.5,1.1,0c0.5-1.5,5.7-3.3,7.8-3c2.2,0.5,1.6-1.9,4-1.7
		c2.7-1.1,0.6,6.5,2.5,6.5c2.2-0.3-0.9-6.2,2.4-6.2c1.3-0.6,2.8-0.3,2.7,2.9c-0.2,5.4-4,5.4-3.4,8.4c-2.1,7.1-13,2.5-9.2,0.9
		c2.4-1.1-5.1-1.3-4,1.1c5.7,3.7-9.2-0.2-6.8,1.7c3.8,2.7,12.2,1.8,10.9,5.3c-1.5,8.4-6.2,1.7-8.4,2.8c0,2.4,6,5.4,8.9,1.5
		c0.8-1.6,2.7-3.8,3.2-1.1c0.6,2.7,4.6-1,0,4.3c-3.8,4.4-6.5-0.8-12.4,6.6c-3.8,2.5-4.3,7.1-7,8.4c-9.4,7.6-1.2,12.7-7.2,13
		C827.1,391,826.3,391.5,822.5,393.4z"/>
	<path style="fill:#B9CEBC;stroke:#FFFFFF;stroke-miterlimit:10;" d="M746.7,319.4c0,3-11.6,9.3-13.9,15.5c-1.8,4.6-4,0.8-6.2,5.7
		c-1.1,1.9-5.4,1.8-6.4,4.5l0.1,0c16.7-2.2,29.7-4.2,35.3-5c22.7-3.4,81-14.2,83.7-15.3c2.4-1.1,3.2-2.5,16.5-3.7
		c0.8-2,4-4.5-0.3-6.8c-4.4-2.3-6.1-1.4-5.7-0.2c-2.6,0-7.2-1.4-8.1-4c-1-2.5-1-0.7-7-1.4c-1.2,0-3-0.8,2.4-0.7
		c5.4,0.1,5.3-0.5,6.1,1.3c0.8,1.8,1.8,0.8,2.2,1.1c0.4,0.3,0.7,2.8,2.8,2.4c2.9-5.2-4.1-3.8-3-9.7c0.8-0.3,6.7-0.6,0.8-3.3
		c0-3-5.4-1.3-5.7-3.5c-0.3-2.4-6.8-4-8.4-6.4c0.3-2.4-6-1-5.4-3.2c3.5,0,5.7,0.2,7.3,2.4c1.6,2.2,12.1,8.8,11.7,6.9
		c-0.8-3.5,1.8-5.1-0.1-5.9c-6.2-0.5-3.3-3.2-7.6-2.9c-10.8-0.2-1.9-4-10.3-4c-3.2,1.4-4.9-3.7-1.7-5.1c1.9-1.6,5.1-6.5-2.8-10.8
		c-2.7-1.6-7.3-2.6-9.5-4l-1.3,3.8c-6-2.9-10.3-5.6-10.5,0.1c-0.2,5.7-7.8,9-8.3,13c-0.5,4.1-2.3,10.6-6.7,7.9
		c-1.4-1.6-3.5-2.7-3.8,1.4c-0.2,4.1-4.7,13.3-6.3,18.4c-2.4,4.6,4.1,3.5-1,6c-3.5,2.2-5.9,3.5-8.1,3.9c-4,0.6,1.7,4.6-8.1,4.1
		c-1.1,0-1.4-3.8-3,1.1c-1.1,2.4-1.9,2.2-5.1,1.7C747.8,324.3,746.4,321.6,746.7,319.4"/>
	<path style="fill:#B9CEBC;stroke:#FFFFFF;stroke-width:0.5;stroke-miterlimit:3.864;" d="M746.7,319.4c0,3-11.6,9.3-13.9,15.5
		c-1.8,4.6-4,0.8-6.2,5.7c-1.1,1.9-5.4,1.8-6.4,4.5l0.1,0c16.7-2.2,29.7-4.2,35.3-5c22.7-3.4,81-14.2,83.7-15.3
		c2.4-1.1,3.2-2.5,16.5-3.7c0.8-2,4-4.5-0.3-6.8c-4.4-2.3-6.1-1.4-5.7-0.2c-2.6,0-7.2-1.4-8.1-4c-1-2.5-1-0.7-7-1.4
		c-1.2,0-3-0.8,2.4-0.7c5.4,0.1,5.3-0.5,6.1,1.3c0.8,1.8,1.8,0.8,2.2,1.1c0.4,0.3,0.7,2.8,2.8,2.4c2.9-5.2-4.1-3.8-3-9.7
		c0.8-0.3,6.7-0.6,0.8-3.3c0-3-5.4-1.3-5.7-3.5c-0.3-2.4-6.8-4-8.4-6.4c0.3-2.4-6-1-5.4-3.2c3.5,0,5.7,0.2,7.3,2.4
		c1.6,2.2,12.1,8.8,11.7,6.9c-0.8-3.5,1.8-5.1-0.1-5.9c-6.2-0.5-3.3-3.2-7.6-2.9c-10.8-0.2-1.9-4-10.3-4c-3.2,1.4-4.9-3.7-1.7-5.1
		c1.9-1.6,5.1-6.5-2.8-10.8c-2.7-1.6-7.3-2.6-9.5-4l-1.3,3.8c-6-2.9-10.3-5.6-10.5,0.1c-0.2,5.7-7.8,9-8.3,13
		c-0.5,4.1-2.3,10.6-6.7,7.9c-1.4-1.6-3.5-2.7-3.8,1.4c-0.2,4.1-4.7,13.3-6.3,18.4c-2.4,4.6,4.1,3.5-1,6c-3.5,2.2-5.9,3.5-8.1,3.9
		c-4,0.6,1.7,4.6-8.1,4.1c-1.1,0-1.4-3.8-3,1.1c-1.1,2.4-1.9,2.2-5.1,1.7C747.8,324.3,746.4,321.6,746.7,319.4z"/>
	<path style="fill:#B9CEBC;stroke:#FFFFFF;stroke-miterlimit:10;" d="M825.6,278.2c-1.6,2.7,1.4,5.4,1.4,2.7l3.2-0.6l1.6,2.7
		c3.3,0.5,6.2-0.1,9,2.9c1.9,1.1,3.3,0.5,0.5-2.7c-2.7-3.2,1.1-3-3.9-8.6"/>
	<path style="fill:#B9CEBC;stroke:#FFFFFF;stroke-width:0.5;stroke-miterlimit:3.864;" d="M825.6,278.2c-1.6,2.7,1.4,5.4,1.4,2.7
		l3.2-0.6l1.6,2.7c3.3,0.5,6.2-0.1,9,2.9c1.9,1.1,3.3,0.5,0.5-2.7c-2.7-3.2,1.1-3-3.9-8.6"/>
	<path style="fill:#B9CEBC;stroke:#FFFFFF;stroke-miterlimit:10;" d="M707.5,225.6l-23.2,1.8l7,61.3c2.4,0.2,6.4-4.4,10.6,4.8
		c1.6-0.6,3.5,1.3,6.2,1.8c4.3-0.9,2.2,2.1,9.5,0.5c3,3.5,1.9,0.2,3.5,0.2c3.5,0.8,1.1-2.4,5.1-1.7c2.4,0.5-0.8,3,4.6,4
		c2.4,1.1,6.2,2.4,6.2-3l2.2-0.8c-2.8-9.7,4.2-15.5,3.4-9c-1.6,1.9,0,1.1,0.8,0.8c0.8-0.3,4-0.6,1.1-3c-0.8-1.4-0.3-4.3,3.5-8.1
		c2.4-2.2,3.2,0.8,4.6-2.5c3.5-3.8,7.8-6.3,5.5-15.7c-0.3-4.6,3.2-2.5,0.7-12.5c-2.5-3.2,3.5-1.4,1.9-3.5l-4.6-30.5
		c-1.1,2.2-5.4,1.9-7,3.6c-2.9,4.1-3.5,0.3-12.1,10.6c-4.3,3.6-10.3-0.7-18.9,5.8C716.5,231.2,715.9,224.2,707.5,225.6"/>
	<path style="fill:#B9CEBC;stroke:#FFFFFF;stroke-width:0.5;stroke-miterlimit:3.864;" d="M707.5,225.6l-23.2,1.8l7,61.3
		c2.4,0.2,6.4-4.4,10.6,4.8c1.6-0.6,3.5,1.3,6.2,1.8c4.3-0.9,2.2,2.1,9.5,0.5c3,3.5,1.9,0.2,3.5,0.2c3.5,0.8,1.1-2.4,5.1-1.7
		c2.4,0.5-0.8,3,4.6,4c2.4,1.1,6.2,2.4,6.2-3l2.2-0.8c-2.8-9.7,4.2-15.5,3.4-9c-1.6,1.9,0,1.1,0.8,0.8c0.8-0.3,4-0.6,1.1-3
		c-0.8-1.4-0.3-4.3,3.5-8.1c2.4-2.2,3.2,0.8,4.6-2.5c3.5-3.8,7.8-6.3,5.5-15.7c-0.3-4.6,3.2-2.5,0.7-12.5c-2.5-3.2,3.5-1.4,1.9-3.5
		l-4.6-30.5c-1.1,2.2-5.4,1.9-7,3.6c-2.9,4.1-3.5,0.3-12.1,10.6c-4.3,3.6-10.3-0.7-18.9,5.8C716.5,231.2,715.9,224.2,707.5,225.6z"
		/>
	<path style="fill:#B9CEBC;stroke:#FFFFFF;stroke-miterlimit:10;" d="M851.5,209.3c-0.6-5.1,0.8-1.9,0.2-5.4l-0.6-1.3l-4.6-1.9
		c0.8-4.3-0.6-4.3-3.3-5.7c-2.2,0.6-1.7-4-5.2-2.9c-7,2.2-54.8,14-71,15.2l-0.1-6.2c0,0-4.8,2.8-4.8,3.5c0,1.1,0,3-2.7,3
		c-2.7,0-2.4,1.4-3.5,3l7.9,52.5c10.8-1.2,80.6-16.2,80.6-16.2c0.5-2.7,0.5-5.4,4.3-4.4c7-2.8,2.9-5.7,7.5-7.9
		c1.6-0.6,2.7-2.7,0.5-4.9l-8.7-8.6c-0.6-1.1,1.9-0.7,1.9-2.5c0-2.4-3.3-3.8-0.9-5.7C849.1,209.3,851.3,212.8,851.5,209.3
		c-0.6-5.1,0.8-1.9,0.2-5.4l-0.6-1.3l-4.6-1.9c0.8-4.3-0.6-4.3-3.3-5.7c-2.2,0.6-1.7-4-5.2-2.9"/>
	<path style="fill:#B9CEBC;stroke:#FFFFFF;stroke-width:0.5;stroke-miterlimit:3.864;" d="M851.5,209.3c-0.6-5.1,0.8-1.9,0.2-5.4
		l-0.6-1.3l-4.6-1.9c0.8-4.3-0.6-4.3-3.3-5.7c-2.2,0.6-1.7-4-5.2-2.9c-7,2.2-54.8,14-71,15.2l-0.1-6.2c0,0-4.8,2.8-4.8,3.5
		c0,1.1,0,3-2.7,3c-2.7,0-2.4,1.4-3.5,3l7.9,52.5c10.8-1.2,80.6-16.2,80.6-16.2c0.5-2.7,0.5-5.4,4.3-4.4c7-2.8,2.9-5.7,7.5-7.9
		c1.6-0.6,2.7-2.7,0.5-4.9l-8.7-8.6c-0.6-1.1,1.9-0.7,1.9-2.5c0-2.4-3.3-3.8-0.9-5.7C849.1,209.3,851.3,212.8,851.5,209.3
		c-0.6-5.1,0.8-1.9,0.2-5.4l-0.6-1.3l-4.6-1.9c0.8-4.3-0.6-4.3-3.3-5.7c-2.2,0.6-1.7-4-5.2-2.9"/>
	<path style="fill:#B9CEBC;stroke:#FFFFFF;stroke-miterlimit:10;" d="M844.5,246.9c0.5-2.7,0.5-5.4,4.3-4.4c-1.6,1.6,1.6,2.2-1.6,3
		c-0.3,1.4,1.1,3,1.4,4c0.3,1.1,0.6,2.7,4.4,5.6c3.5,1.3,1.4,7,7.1,9.9c1.9,2.7,4.4,5.4,2.8,8.1l-11.4,1.2L844.5,246.9z"/>
	<path style="fill:#B9CEBC;stroke:#FFFFFF;stroke-width:0.5;stroke-miterlimit:3.864;" d="M844.5,246.9c0.5-2.7,0.5-5.4,4.3-4.4
		c-1.6,1.6,1.6,2.2-1.6,3c-0.3,1.4,1.1,3,1.4,4c0.3,1.1,0.6,2.7,4.4,5.6c3.5,1.3,1.4,7,7.1,9.9c1.9,2.7,4.4,5.4,2.8,8.1l-11.4,1.2
		L844.5,246.9z"/>
	<path style="fill:#B9CEBC;stroke:#FFFFFF;stroke-miterlimit:10;" d="M838.1,192.1c3.5-1.1,3,3.5,5.2,2.9c2.7,1.3,4.1,1.3,3.3,5.7
		l4.6,1.8l0.6,1.3c0.6,3.5-0.8,0.3-0.2,5.4"/>
	<path style="fill:#B9CEBC;stroke:#FFFFFF;stroke-width:0.5;stroke-miterlimit:3.864;" d="M838.1,192.1c3.5-1.1,3,3.5,5.2,2.9
		c2.7,1.3,4.1,1.3,3.3,5.7l4.6,1.8l0.6,1.3c0.6,3.5-0.8,0.3-0.2,5.4"/>
	<path style="fill:#B9CEBC;stroke:#FFFFFF;stroke-miterlimit:10;" d="M851.7,203.9l-0.6-1.3l-4.6-1.9c0.8-4.3-0.6-4.3-3.3-5.6
		c-2.2,0.6-1.7-4-5.2-2.9c-7,2.2-54.8,14-71,15.2l-0.1-6.2c2.4-2.2,6.7-5.7,5.6-7.1c3.5-1.9,1.1-3,4.3-4.9c2.2-1.1,1.9-2.2,0.2-3.5
		c-1.6-1.3,2.4-3.5-2.5-5.4c-1.1-0.3-1.1-5.1,1.6-5.4c2.7-0.3,4.3-3.6,9.2-3.6c4.9-0.1,7.6-1.7,12.5,1.5c3.8,0.5,0-2.7,3.8-3.3
		c4.3-0.3,6.8,0.2,11.8-6.3c0.3-1.1,5.9-3.8,4-5.5c-1.9-1.6-2.2-5.4-0.9-5.9c1.3-0.6,1.6-3-2.5-3.2c-4.1-0.2,4.6-6.9,5.9-8.7
		c2.1-3-0.3-8.1,11.2-17.7c2.4-1.6,18.9-6.7,25.3-8.1c1.1,3.8,1.7,14.6,3.4,18.1c-0.5,7.3,2.5,10.3,1.5,12.7
		c1.4,3.8,2.2-0.3,3.5,2.9l4.7,18.1l0.7,17.6l4.2,19.7l-2.7,3l1.1,1.5c-0.8,0.6-2.9,5-2.9,5l0.2-2.7L851.7,203.9z"/>
	<path style="fill:#B9CEBC;stroke:#FFFFFF;stroke-width:0.5;stroke-miterlimit:3.864;" d="M851.7,203.9l-0.6-1.3l-4.6-1.9
		c0.8-4.3-0.6-4.3-3.3-5.6c-2.2,0.6-1.7-4-5.2-2.9c-7,2.2-54.8,14-71,15.2l-0.1-6.2c2.4-2.2,6.7-5.7,5.6-7.1c3.5-1.9,1.1-3,4.3-4.9
		c2.2-1.1,1.9-2.2,0.2-3.5c-1.6-1.3,2.4-3.5-2.5-5.4c-1.1-0.3-1.1-5.1,1.6-5.4c2.7-0.3,4.3-3.6,9.2-3.6c4.9-0.1,7.6-1.7,12.5,1.5
		c3.8,0.5,0-2.7,3.8-3.3c4.3-0.3,6.8,0.2,11.8-6.3c0.3-1.1,5.9-3.8,4-5.5c-1.9-1.6-2.2-5.4-0.9-5.9c1.3-0.6,1.6-3-2.5-3.2
		c-4.1-0.2,4.6-6.9,5.9-8.7c2.1-3-0.3-8.1,11.2-17.7c2.4-1.6,18.9-6.7,25.3-8.1c1.1,3.8,1.7,14.6,3.4,18.1
		c-0.5,7.3,2.5,10.3,1.5,12.7c1.4,3.8,2.2-0.3,3.5,2.9l4.7,18.1l0.7,17.6l4.2,19.7l-2.7,3l1.1,1.5c-0.8,0.6-2.9,5-2.9,5l0.2-2.7
		L851.7,203.9z"/>
	<path style="fill:#B9CEBC;stroke:#FFFFFF;stroke-miterlimit:10;" d="M873.1,207.6l-1.1-1.5l2.7-3l-4.2-19.7l27.8-7.8l3.1,15.9
		c-1.2,0.4-2.8,0-5,2.2c-1.6,1.6-6.7,2.8-7.8,2.9c-1.1,0.2-3.6,1-5.4,1.8c-1.3,0.6-5.4,4.8-7.6,6.3L873.1,207.6z"/>
	<path style="fill:#B9CEBC;stroke:#FFFFFF;stroke-width:0.5;stroke-miterlimit:3.864;" d="M873.1,207.6l-1.1-1.5l2.7-3l-4.2-19.7
		l27.8-7.8l3.1,15.9c-1.2,0.4-2.8,0-5,2.2c-1.6,1.6-6.7,2.8-7.8,2.9c-1.1,0.2-3.6,1-5.4,1.8c-1.3,0.6-5.4,4.8-7.6,6.3L873.1,207.6z"
		/>
	<path style="fill:#B9CEBC;stroke:#FFFFFF;stroke-miterlimit:10;" d="M901.4,191.5l-3.1-15.9l7-2c0,0,1.1,3.2,1.9,3.8
		c-0.3,1.9-0.5,3-0.5,3c-0.5-0.3-1.1-0.3-0.2,1.6c-0.2,3.8-0.2,3.5,0,5.4c0.3,1.9-0.8,1.6-0.5,2.4L901.4,191.5z"/>
	<path style="fill:#B9CEBC;stroke:#FFFFFF;stroke-width:0.5;stroke-miterlimit:3.864;" d="M901.4,191.5l-3.1-15.9l7-2
		c0,0,1.1,3.2,1.9,3.8c-0.3,1.9-0.5,3-0.5,3c-0.5-0.3-1.1-0.3-0.2,1.6c-0.2,3.8-0.2,3.5,0,5.4c0.3,1.9-0.8,1.6-0.5,2.4L901.4,191.5z
		"/>
	<path style="fill:#B9CEBC;stroke:#FFFFFF;stroke-miterlimit:10;" d="M869.8,165.8l0.7,17.6l27.8-7.8l7-2c0,0,1.1,3.2,1.9,3.8
		c-0.3,1.9-0.5,3-0.5,3c1.4,1.3,3,0.8,3,1.9c0,1.1,1.9,4,3.3,1.6c1.3-2.4,2.2-0.6,1.6-4.1c4.1,0.8,1.1-1.9,4.3-3
		c0,3-0.8,3.6,2.2,3.2c4.3-0.6,1.9-2.2,5.1-2.5c3.2-0.8,5.9-1.7,4.6-4.6c-0.3-2.2,1.6-4.3-2-6.5c-1.9-1.1-2.7-0.8-3.8,1.1
		c-1.1,1.9,1.3-1.1,1.9,0.5c0.6,1.6,3.5,3,0.8,4.9c-2.7,1.9-0.9,4-3.8,3.3c-4.1-1-5.4-5.6-6.8-5.1c-0.3-1.9-3-5.7-5.2-4.8
		c-3,0.6-0.8,3-3.7,3.3c-1.1,0-1.6-2.4-0.8-2.7c-0.3-5.4,4.5-6,2.6-7.1c2.4-2.4,3.5-6.2,0.2-4.6c-1.1,0.3-0.6-4.1-3.3-3.2
		c-2.7,0.6-1.1,3.3-3.5,3.5c-1.4,0.3-2.2,0.8-2.4,3L869.8,165.8z"/>
	<path style="fill:#B9CEBC;stroke:#FFFFFF;stroke-width:0.5;stroke-miterlimit:3.864;" d="M869.8,165.8l0.7,17.6l27.8-7.8l7-2
		c0,0,1.1,3.2,1.9,3.8c-0.3,1.9-0.5,3-0.5,3c1.4,1.3,3,0.8,3,1.9c0,1.1,1.9,4,3.3,1.6c1.3-2.4,2.2-0.6,1.6-4.1
		c4.1,0.8,1.1-1.9,4.3-3c0,3-0.8,3.6,2.2,3.2c4.3-0.6,1.9-2.2,5.1-2.5c3.2-0.8,5.9-1.7,4.6-4.6c-0.3-2.2,1.6-4.3-2-6.5
		c-1.9-1.1-2.7-0.8-3.8,1.1c-1.1,1.9,1.3-1.1,1.9,0.5c0.6,1.6,3.5,3,0.8,4.9c-2.7,1.9-0.9,4-3.8,3.3c-4.1-1-5.4-5.6-6.8-5.1
		c-0.3-1.9-3-5.7-5.2-4.8c-3,0.6-0.8,3-3.7,3.3c-1.1,0-1.6-2.4-0.8-2.7c-0.3-5.4,4.5-6,2.6-7.1c2.4-2.4,3.5-6.2,0.2-4.6
		c-1.1,0.3-0.6-4.1-3.3-3.2c-2.7,0.6-1.1,3.3-3.5,3.5c-1.4,0.3-2.2,0.8-2.4,3L869.8,165.8z"/>
	<path style="fill:#B9CEBC;stroke:#FFFFFF;stroke-miterlimit:10;" d="M856.7,114c1.1,3.8,1.7,14.6,3.4,18.1
		c-0.5,7.3,2.5,10.3,1.5,12.7c1.4,3.8,2.2-0.3,3.5,3l4.7,18.1l13-3c0.3-1.4-3.3-3.3-3.3-5.4c0.2-4.1,2.3-10.9,1.5-16.8
		c-0.8-5.9,2.7-9.4,0.4-16.8c-0.8-2.7,4.3-2.2,3.7-8.7c-1.1-3.2-0.1-8.8-1.1-9.2L856.7,114z"/>
	<path style="fill:#B9CEBC;stroke:#FFFFFF;stroke-width:0.5;stroke-miterlimit:3.864;" d="M856.7,114c1.1,3.8,1.7,14.6,3.4,18.1
		c-0.5,7.3,2.5,10.3,1.5,12.7c1.4,3.8,2.2-0.3,3.5,3l4.7,18.1l13-3c0.3-1.4-3.3-3.3-3.3-5.4c0.2-4.1,2.3-10.9,1.5-16.8
		c-0.8-5.9,2.7-9.4,0.4-16.8c-0.8-2.7,4.3-2.2,3.7-8.7c-1.1-3.2-0.1-8.8-1.1-9.2L856.7,114z"/>
	<path style="fill:#B9CEBC;stroke:#FFFFFF;stroke-miterlimit:10;" d="M883.9,106c1.1,1.3,0,5.9,1.2,9.2c0.6,6.5-4.5,6-3.7,8.7
		c2.3,7.4-1.3,10.8-0.4,16.8c0.9,5.9-1.2,12.7-1.5,16.8c0,2.2,3.6,4.1,3.3,5.4l18.3-4.3c0.3-2.2,1.1-2.7,2.4-3
		c2.4-0.3,0.8-3,3.5-3.5c0.8-0.6,2.2,0.5,1.6-5.2c-1.3-1.1-3.8-2.1-5.5-5.6c-1.7-3.5-14.4-42.3-14.4-42.3c-0.4-1.5-0.5,1.2-3.2,0.6
		C884.8,99.3,885,104.2,883.9,106"/>
	<path style="fill:#B9CEBC;stroke:#FFFFFF;stroke-width:0.5;stroke-miterlimit:3.864;" d="M883.9,106c1.1,1.3,0,5.9,1.2,9.2
		c0.6,6.5-4.5,6-3.7,8.7c2.3,7.4-1.3,10.8-0.4,16.8c0.9,5.9-1.2,12.7-1.5,16.8c0,2.2,3.6,4.1,3.3,5.4l18.3-4.3
		c0.3-2.2,1.1-2.7,2.4-3c2.4-0.3,0.8-3,3.5-3.5c0.8-0.6,2.2,0.5,1.6-5.2c-1.3-1.1-3.8-2.1-5.5-5.6c-1.7-3.5-14.4-42.3-14.4-42.3
		c-0.4-1.5-0.5,1.2-3.2,0.6C884.8,99.3,885,104.2,883.9,106z"/>
	<path style="fill:#B9CEBC;stroke:#FFFFFF;stroke-miterlimit:10;" d="M944.5,81.4c4.9,4.8,1.6-3,8.1,1c3.6,2.2,0.8,3-0.2,4.3
		c-0.8,1.6,5.9,0.2,3,4c1.1,3-3.5,1.4-6.5,3.8c0.6,3.2-1.6,4.6-3.7,3.8c0.6,4.9-1.9,1.4-1.3,3.5c0.6,2.1,0.6,5.1-0.2,3.8
		c0-0.8-0.6-1.6-2.2-3.5c0,0-0.3,1.6-2.4-1.6c0.5,1.6,0,2.2-1.6,2.7c0.6,2.7-5.4,2.2-8.1,2.8c0.6,2.4-3.2,6.2-1.6,9.2
		c1.1,0.8,0.6,3-0.5,4.1c-1.9,0.3-2.2-2.7-4.1-0.2c1.7,4.6-2.9,3.3-6.5,3.8c0.3,0.8-0.3,2.2-1.9,3c-1.6,0.8-2.9,4.3-2.1,5.7
		c3,1.3-0.8,3-1.3,4.1c0.6,2.4-2.1,4.6-2.1,5.7c0,1.1,1.1,3.8-0.8,5.4c-1.4-1.1-3.8-2.1-5.5-5.6c-1.7-3.5-14.4-42.3-14.4-42.3
		c0-2.2,0.8-4.3,1.9-1.6c1.1,2.7,2.4-0.3,1.3-3.3c3.2-1.4-1.1-3.5,1-4.6c2.1-1.9,0.5-4.6,3.2-6.5c0.7-7.9-3.3-8.9,1.2-17.3
		c-1.1-3.2-2.5-5.4-0.6-8.9c1.8-3.5,4.8-12.5,5.3-14.4c0.5-1.9,2.5-5.4,4.9-1.1c3.3,6.1,6.2-1.1,10.3-1.7c1.9-4.1,7.3,1,10,2.9
		c2.7,1.1,3.6,10.8,9.7,25.9c1.4,7.3,7.3,4,7.4,6.7c-0.3,2.2-2.4,1.1-1.1,2.4C944.5,78.7,945.9,80.5,944.5,81.4"/>
	<path style="fill:#B9CEBC;stroke:#FFFFFF;stroke-width:0.5;stroke-miterlimit:3.864;" d="M944.5,81.4c4.9,4.8,1.6-3,8.1,1
		c3.6,2.2,0.8,3-0.2,4.3c-0.8,1.6,5.9,0.2,3,4c1.1,3-3.5,1.4-6.5,3.8c0.6,3.2-1.6,4.6-3.7,3.8c0.6,4.9-1.9,1.4-1.3,3.5
		c0.6,2.1,0.6,5.1-0.2,3.8c0-0.8-0.6-1.6-2.2-3.5c0,0-0.3,1.6-2.4-1.6c0.5,1.6,0,2.2-1.6,2.7c0.6,2.7-5.4,2.2-8.1,2.8
		c0.6,2.4-3.2,6.2-1.6,9.2c1.1,0.8,0.6,3-0.5,4.1c-1.9,0.3-2.2-2.7-4.1-0.2c1.7,4.6-2.9,3.3-6.5,3.8c0.3,0.8-0.3,2.2-1.9,3
		c-1.6,0.8-2.9,4.3-2.1,5.7c3,1.3-0.8,3-1.3,4.1c0.6,2.4-2.1,4.6-2.1,5.7c0,1.1,1.1,3.8-0.8,5.4c-1.4-1.1-3.8-2.1-5.5-5.6
		c-1.7-3.5-14.4-42.3-14.4-42.3c0-2.2,0.8-4.3,1.9-1.6c1.1,2.7,2.4-0.3,1.3-3.3c3.2-1.4-1.1-3.5,1-4.6c2.1-1.9,0.5-4.6,3.2-6.5
		c0.7-7.9-3.3-8.9,1.2-17.3c-1.1-3.2-2.5-5.4-0.6-8.9c1.8-3.5,4.8-12.5,5.3-14.4c0.5-1.9,2.5-5.4,4.9-1.1c3.3,6.1,6.2-1.1,10.3-1.7
		c1.9-4.1,7.3,1,10,2.9c2.7,1.1,3.6,10.8,9.7,25.9c1.4,7.3,7.3,4,7.4,6.7c-0.3,2.2-2.4,1.1-1.1,2.4
		C944.5,78.7,945.9,80.5,944.5,81.4z"/>
	<path style="fill:#B9CEBC;stroke:#FFFFFF;stroke-miterlimit:10;" d="M851.5,209.3c-0.6-5.1,0.8-1.9,0.2-5.4"/>
	<path style="fill:#B9CEBC;stroke:#FFFFFF;stroke-width:0.5;stroke-miterlimit:3.864;" d="M851.5,209.3c-0.6-5.1,0.8-1.9,0.2-5.4"/>
	<path style="fill:#B9CEBC;stroke:#FFFFFF;stroke-miterlimit:10;" d="M851.7,203.9c0.6,3.5-0.8,0.3-0.2,5.4"/>
	<path style="fill:#B9CEBC;stroke:#FFFFFF;stroke-width:0.5;stroke-miterlimit:3.864;" d="M851.7,203.9c0.6,3.5-0.8,0.3-0.2,5.4"/>
	<path style="fill:#B9CEBC;stroke:#FFFFFF;stroke-miterlimit:10;" d="M856.3,234.6c1.6-0.6,2.7-2.7,0.5-4.9l-8.7-8.6
		c-0.5-1.1,1.9-0.7,1.9-2.5c0-2.4-3.3-3.8-0.9-5.7c0-3.8,2.2-0.3,2.4-3.8c-0.6-5.1,0.8-1.9,0.2-5.4l18.7,6.1l-0.2,2.7
		c-2.4,0.6-1.6,4.9-3.8,4.4c-0.8,2.4-0.5,6.8,2.2,5.4c2.7-1.4,2.2,1.1,2.2,2.7c0,1.6,1.4,6.8-0.5,6.5c-1.9-0.2,1.6,2.1-0.2,5.9
		c-0.2,4.1,0.9,7.8-3.9,14.1c-1.1,2.7,2.2,3.8-3.4,8.4c-1.3,2.2-1.4-4.3-3.8-4.3c-2.2-0.2-2.5-3.8-5.7-2.9c-1.9,0-6-7.3-2.5-9.2
		C854.2,241.7,854.7,236.3,856.3,234.6"/>
	<path style="fill:#B9CEBC;stroke:#FFFFFF;stroke-width:0.5;stroke-miterlimit:3.864;" d="M856.3,234.6c1.6-0.6,2.7-2.7,0.5-4.9
		l-8.7-8.6c-0.5-1.1,1.9-0.7,1.9-2.5c0-2.4-3.3-3.8-0.9-5.7c0-3.8,2.2-0.3,2.4-3.8c-0.6-5.1,0.8-1.9,0.2-5.4l18.7,6.1l-0.2,2.7
		c-2.4,0.6-1.6,4.9-3.8,4.4c-0.8,2.4-0.5,6.8,2.2,5.4c2.7-1.4,2.2,1.1,2.2,2.7c0,1.6,1.4,6.8-0.5,6.5c-1.9-0.2,1.6,2.1-0.2,5.9
		c-0.2,4.1,0.9,7.8-3.9,14.1c-1.1,2.7,2.2,3.8-3.4,8.4c-1.3,2.2-1.4-4.3-3.8-4.3c-2.2-0.2-2.5-3.8-5.7-2.9c-1.9,0-6-7.3-2.5-9.2
		C854.2,241.7,854.7,236.3,856.3,234.6z"/>
	<path style="fill:#B9CEBC;stroke:#FFFFFF;stroke-miterlimit:10;" d="M732.8,335c2.4-6.2,14-12.6,13.9-15.5l-1.4-1.6
		c-6.3,0.1-7.2-5.3-10-8.6c-4.6-2.9-0.9-8.4-4.5-10.8c2.4,1.1,6.2,2.4,6.2-3l2.1-0.8c-2.8-9.7,4.2-15.4,3.4-9
		c-1.6,1.9,0,1.1,0.8,0.8c0.8-0.3,4.1-0.6,1.1-3c-0.8-1.3-0.3-4.3,3.5-8.1c2.4-2.2,3.2,0.8,4.6-2.5c3.5-3.8,7.8-6.3,5.5-15.7
		c-0.3-4.6,3.2-2.5,0.7-12.4c-2.5-3.2,3.5-1.4,1.9-3.5l3.3,22c2.8-0.3,9.5-1.5,18-3.2l1.1,10.5c2.2,0,4-5,6.4-5.5
		c3.5-1.4,2.4-4.3,4.3-3.8c4.1,0.2,6,0.5,6.5-1.7c0.5-2.2,2.9-3.6,5.9-2.5c5.2,1.8,3.8,3.8,7.1,6.4l-1.3,3.8
		c-6-2.9-10.3-5.6-10.5,0.1c-0.2,5.7-7.8,9-8.3,13.1c-0.5,4.1-2.3,10.6-6.7,7.9c-1.4-1.6-3.5-2.7-3.8,1.4
		c-0.2,4.1-4.7,13.3-6.3,18.4c-2.4,4.6,4.1,3.5-1,6c-3.5,2.2-5.9,3.5-8.1,3.9c-4,0.6,1.7,4.6-8.1,4.1c-1.1,0-1.4-3.8-3,1.1
		c-1.1,2.4-1.9,2.2-5.1,1.7c-3.3-0.5-4.6-3.2-4.4-5.4C746.7,322.4,735.1,328.7,732.8,335"/>
	<path style="fill:#B9CEBC;stroke:#FFFFFF;stroke-width:0.5;stroke-miterlimit:3.864;" d="M732.8,335c2.4-6.2,14-12.6,13.9-15.5
		l-1.4-1.6c-6.3,0.1-7.2-5.3-10-8.6c-4.6-2.9-0.9-8.4-4.5-10.8c2.4,1.1,6.2,2.4,6.2-3l2.1-0.8c-2.8-9.7,4.2-15.4,3.4-9
		c-1.6,1.9,0,1.1,0.8,0.8c0.8-0.3,4.1-0.6,1.1-3c-0.8-1.3-0.3-4.3,3.5-8.1c2.4-2.2,3.2,0.8,4.6-2.5c3.5-3.8,7.8-6.3,5.5-15.7
		c-0.3-4.6,3.2-2.5,0.7-12.4c-2.5-3.2,3.5-1.4,1.9-3.5l3.3,22c2.8-0.3,9.5-1.5,18-3.2l1.1,10.5c2.2,0,4-5,6.4-5.5
		c3.5-1.4,2.4-4.3,4.3-3.8c4.1,0.2,6,0.5,6.5-1.7c0.5-2.2,2.9-3.6,5.9-2.5c5.2,1.8,3.8,3.8,7.1,6.4l-1.3,3.8
		c-6-2.9-10.3-5.6-10.5,0.1c-0.2,5.7-7.8,9-8.3,13.1c-0.5,4.1-2.3,10.6-6.7,7.9c-1.4-1.6-3.5-2.7-3.8,1.4
		c-0.2,4.1-4.7,13.3-6.3,18.4c-2.4,4.6,4.1,3.5-1,6c-3.5,2.2-5.9,3.5-8.1,3.9c-4,0.6,1.7,4.6-8.1,4.1c-1.1,0-1.4-3.8-3,1.1
		c-1.1,2.4-1.9,2.2-5.1,1.7c-3.3-0.5-4.6-3.2-4.4-5.4C746.7,322.4,735.1,328.7,732.8,335z"/>
	<path style="fill:#B9CEBC;stroke:#FFFFFF;stroke-miterlimit:10;" d="M837.5,274.6c4.9,5.6,1.1,5.4,3.9,8.6c2.7,3.2,1.4,3.8-0.5,2.7
		c-2.7-3-5.7-2.4-9-2.9l-1.6-2.7l-3.2,0.6c0,2.7-3,0-1.4-2.7c1.9-1.6,5.1-6.5-2.8-10.8c-2.7-1.6-7.3-2.6-9.5-4
		c-3.3-2.7-1.9-4.6-7.1-6.4c-3.1-1.1-5.4,0.3-5.9,2.5c-0.5,2.2-2.4,1.9-6.5,1.7c-1.9-0.5-0.8,2.4-4.3,3.8c-2.4,0.4-4.3,5.4-6.4,5.5
		l-1.1-10.5h0.1c24.3-4.8,62.5-13,62.5-13l7,27.5l11.4-1.2c-1,5.4-2.4,4.6-2.1,8.9c-0.3,1.6-0.8,1.6-0.8,1.6l-5.7,0.9
		c-1.1,1.4-3,2.7-3.2,0.8c0.3-1.6,0-2.7-1.4-1.6c-1.3,1.1-0.8-1.9-0.6-2.7c0.3-0.8,0-3.5-1.9-1.9c-0.5,1.6-8.4-0.2-7.1-10.5
		c0.3-1.6,2.7,1.6,1.9-2.2c0.2-4.6-2.7-1.3-2.2-4c-0.8-3-1.9-4.9,1.6-7.1c0.5-1.1,2.1-3.3,2.1-3.3l0.2-1.9c-1.9,2.7-2.4-0.8-3.8,0
		c-0.2,3-2.1,5.2-3.5,5.4c-1.3,0.3-0.8,3-0.8,4.1c0,1.1,1.4,3.9,0.3,6.8C835.2,268.9,837.2,273.2,837.5,274.6"/>
	<path style="fill:#B9CEBC;stroke:#FFFFFF;stroke-width:0.5;stroke-miterlimit:3.864;" d="M837.5,274.6c4.9,5.6,1.1,5.4,3.9,8.6
		c2.7,3.2,1.4,3.8-0.5,2.7c-2.7-3-5.7-2.4-9-2.9l-1.6-2.7l-3.2,0.6c0,2.7-3,0-1.4-2.7c1.9-1.6,5.1-6.5-2.8-10.8
		c-2.7-1.6-7.3-2.6-9.5-4c-3.3-2.7-1.9-4.6-7.1-6.4c-3.1-1.1-5.4,0.3-5.9,2.5c-0.5,2.2-2.4,1.9-6.5,1.7c-1.9-0.5-0.8,2.4-4.3,3.8
		c-2.4,0.4-4.3,5.4-6.4,5.5l-1.1-10.5h0.1c24.3-4.8,62.5-13,62.5-13l7,27.5l11.4-1.2c-1,5.4-2.4,4.6-2.1,8.9
		c-0.3,1.6-0.8,1.6-0.8,1.6l-5.7,0.9c-1.1,1.4-3,2.7-3.2,0.8c0.3-1.6,0-2.7-1.4-1.6c-1.3,1.1-0.8-1.9-0.6-2.7c0.3-0.8,0-3.5-1.9-1.9
		c-0.5,1.6-8.4-0.2-7.1-10.5c0.3-1.6,2.7,1.6,1.9-2.2c0.2-4.6-2.7-1.3-2.2-4c-0.8-3-1.9-4.9,1.6-7.1c0.5-1.1,2.1-3.3,2.1-3.3
		l0.2-1.9c-1.9,2.7-2.4-0.8-3.8,0c-0.2,3-2.1,5.2-3.5,5.4c-1.3,0.3-0.8,3-0.8,4.1c0,1.1,1.4,3.9,0.3,6.8
		C835.2,268.9,837.2,273.2,837.5,274.6z"/>
	<path style="fill:#B9CEBC;stroke:#FFFFFF;stroke-miterlimit:10;" d="M851.1,285.5c0.3,1.9,2.2,0.5,3.2-0.8l5.7-0.9
		c0.3,1.9,0.8,4.3-0.8,5.7c-1.6,1.4-0.5,3.3-1.6,4.3c-1.3,1.9-0.5,3.8-1.6,4.9c-1.1,1.1-2.1,4.9-0.8,5.7c1.4,0.8-0.5,3-1.6,2.2
		c-1.6-0.8-1.6-2.2-1.7-3.5c0-5.8,1.5-10.3,1.5-10.3c1.6-2.2,2.9-5.2,1-8.1"/>
	<path style="fill:#B9CEBC;stroke:#FFFFFF;stroke-width:0.5;stroke-miterlimit:3.864;" d="M851.1,285.5c0.3,1.9,2.2,0.5,3.2-0.8
		l5.7-0.9c0.3,1.9,0.8,4.3-0.8,5.7c-1.6,1.4-0.5,3.3-1.6,4.3c-1.3,1.9-0.5,3.8-1.6,4.9c-1.1,1.1-2.1,4.9-0.8,5.7
		c1.4,0.8-0.5,3-1.6,2.2c-1.6-0.8-1.6-2.2-1.7-3.5c0-5.8,1.5-10.3,1.5-10.3c1.6-2.2,2.9-5.2,1-8.1"/>
	<path style="fill:#ECB09B;stroke:#FFFFFF;stroke-miterlimit:10;" d="M266.9,240.3c-11.8-1.9-23.2-3.8-33-5.8l3.3-22.7l-51.4-11.5
		l-23.5,117.5l92.4,16.9l13-93.5l0.1-0.8L266.9,240.3z"/>
	<path style="fill:#ECB09B;stroke:#FFFFFF;stroke-width:0.5;stroke-miterlimit:3.864;" d="M266.9,240.3c-11.8-1.9-23.2-3.8-33-5.8
		l3.3-22.7l-51.4-11.5l-23.5,117.5l92.4,16.9l13-93.5l0.1-0.8L266.9,240.3z"/>
	<path style="fill:#ECB09B;stroke:#FFFFFF;stroke-miterlimit:10;" d="M155.2,340.5c0.8,1.1,2.2-0.6,3.2-2.5l3.8-20.3l23.5-117.5
		l-0.1,0l-48.8-10.9l-51.8-13.4l-16.5,68.9L143,359.9c1.6-1.9,2.2,2.1,3-17.9c0-1.6,1.1-1.9,3.5-1.7
		C151.1,339.2,153,336.5,155.2,340.5"/>
	<path style="fill:#ECB09B;stroke:#FFFFFF;stroke-width:0.5;stroke-miterlimit:3.864;" d="M155.2,340.5c0.8,1.1,2.2-0.6,3.2-2.5
		l3.8-20.3l23.5-117.5l-0.1,0l-48.8-10.9l-51.8-13.4l-16.5,68.9L143,359.9c1.6-1.9,2.2,2.1,3-17.9c0-1.6,1.1-1.9,3.5-1.7
		C151.1,339.2,153,336.5,155.2,340.5z"/>
	<path style="fill:#ECB09B;stroke:#FFFFFF;stroke-miterlimit:10;" d="M236.3,467.1c7.4-51.4,17.3-126.2,18.4-132.4l-92.4-16.9
		l-3.8,20.3c-1.1,1.9-2.4,3.5-3.2,2.5c-2.2-4-4.1-1.3-5.7-0.2c-2.4-0.2-3.5,0-3.5,1.7c-0.8,20-1.4,16-3,17.9
		c-1.9,2.7,0.5,7.1,1.2,7.8c2.2,2.1,1.2,7.3,2.3,8.6c1.4,1.1,2.4,2.5-0.5,5.7c-3.2,3.5-3,0.3-5.1,4.1c-1.6,2.2-0.5,6.5-2.3,7.9
		c-1.9,1.4-5.7,4.7-4.8,6.3c1.6,2.7-0.8,3.5-1,5.2c0.3,1.6,4.1,1.8,3.8,4.6c-0.2,2.7-2.1,4.1-5.9,4.4l-2.7,4.1l66.5,42.8
		L236.3,467.1z"/>
	<path style="fill:#ECB09B;stroke:#FFFFFF;stroke-width:0.5;stroke-miterlimit:3.864;" d="M236.3,467.1
		c7.4-51.4,17.3-126.2,18.4-132.4l-92.4-16.9l-3.8,20.3c-1.1,1.9-2.4,3.5-3.2,2.5c-2.2-4-4.1-1.3-5.7-0.2c-2.4-0.2-3.5,0-3.5,1.7
		c-0.8,20-1.4,16-3,17.9c-1.9,2.7,0.5,7.1,1.2,7.8c2.2,2.1,1.2,7.3,2.3,8.6c1.4,1.1,2.4,2.5-0.5,5.7c-3.2,3.5-3,0.3-5.1,4.1
		c-1.6,2.2-0.5,6.5-2.3,7.9c-1.9,1.4-5.7,4.7-4.8,6.3c1.6,2.7-0.8,3.5-1,5.2c0.3,1.6,4.1,1.8,3.8,4.6c-0.2,2.7-2.1,4.1-5.9,4.4
		l-2.7,4.1l66.5,42.8L236.3,467.1z"/>
	<path style="fill:#ECB09B;stroke:#FFFFFF;stroke-miterlimit:10;" d="M85.1,175.9l-16.5,68.9L143,359.9c-1.9,2.7,0.5,7.1,1.2,7.8
		c2.2,2.1,1.2,7.3,2.3,8.6c1.4,1.1,2.4,2.6-0.5,5.7c-3.2,3.6-3,0.3-5.1,4.1c-1.6,2.2-0.5,6.5-2.3,7.9s-5.7,4.7-4.8,6.3
		c1.6,2.7-0.8,3.5-1,5.2c0.3,1.6,4.1,1.8,3.8,4.5c-0.2,2.7-2.1,4.1-5.9,4.4l-45.8-6.7c-1.6-0.5,0.5-5.4-1.7-6.2
		c-2.2-0.8,4.2-9-4-16.4c-2.2-0.2-1.2-7.6-3.6-6.2c-0.5,0.8-0.8,0.8-1.4-0.8c-0.3-1.6-2.5-5.1-5.2-4.1c-0.9,0.7-2.3-0.4-1-1.8
		c0.7-1.1-0.2-2.2-1.5-2.2c-1.4,0,1.8-4.3-2.5-5.1c-4.3-0.8-7.6-1.8-9-5c-1.4-3.2-6-8.1-10.7-8.8c-3.5-0.5-2.7-3.8-7.9-4.8
		c-2.4,0-3-1-4.4-2.1c-0.6-1.9,1.3-4.3,0.7-6.8c-0.6-2.4,2.9-8.7-0.4-9.7c-1.6-1.1,0-3.8-1.4-4.8c-1.4-1.3-0.6-4.1-3.3-5.9
		c-2.7-1.8-0.1-4.1-0.9-4.9c-0.8-0.8-2.5-3.8-2.2-6.2c-1.4-1.3-4.1-7-5-8.9c-0.8-1.9-1.7-3.5,1-5.2c2.7-1.7,1.8-4.6,3.7-4.9
		c1.6-1.6,0.7-5.1-3.9-5.4c-1.9-0.8-5-7-3.4-10c1.9-2.7-2.5-3.2-0.9-5.7c0.8-1.4,1.6-1.6,1.3-3.3c-0.3-1.6,1.9-1.1,1.6,1.1
		c0,1.6,2.7,2.1,2.5,4c0,1.3,3,1.9,2.7,1.1c0,0,0.2-3.2-1.4-4.6c-2.5-2.1,1.6-5.4-0.9-7c0.3-0.8,1.6-1.6,3.3,0
		c1.6,1.6,3.2-0.8,5.4,2.1c3.5,1.1,4.6,1,3-0.6c-1.6-1.6,1.1-2.7-1.1-2.4c-2.2,0.3-4.1-1-6.5-0.7c-0.3-1.6-1.1-3.3-5.4-2.7
		c-1.1,1.4-3,1.1-2.9,2.2c0,1.1-1.1,0.8-2.4-0.5c-2.2-0.8-4.1-2.7-2.2-5.9c1.3-1.9-1.8-10.5-4.8-15.6c-3-5.1-3.3-7.5-1-11.3
		c2.4-3.8-2-6.7,0.7-9.5c2.7-2.7,1.5-7.1,0.4-10.6c-1.1-3.5-5.6-11.6-3.4-13.2c2.2-1.7,8.3-5.8,7.2-11.2c0.3-1.1,5.6-6,5.6-8.2
		c0-2.2-0.7-10.5,0.7-11.6c1.3-1.1-0.6-1.9-0.6-1.9L85.1,175.9z"/>
	<path style="fill:#ECB09B;stroke:#FFFFFF;stroke-width:0.5;stroke-miterlimit:3.864;" d="M85.1,175.9l-16.5,68.9L143,359.9
		c-1.9,2.7,0.5,7.1,1.2,7.8c2.2,2.1,1.2,7.3,2.3,8.6c1.4,1.1,2.4,2.6-0.5,5.7c-3.2,3.6-3,0.3-5.1,4.1c-1.6,2.2-0.5,6.5-2.3,7.9
		s-5.7,4.7-4.8,6.3c1.6,2.7-0.8,3.5-1,5.2c0.3,1.6,4.1,1.8,3.8,4.5c-0.2,2.7-2.1,4.1-5.9,4.4l-45.8-6.7c-1.6-0.5,0.5-5.4-1.7-6.2
		c-2.2-0.8,4.2-9-4-16.4c-2.2-0.2-1.2-7.6-3.6-6.2c-0.5,0.8-0.8,0.8-1.4-0.8c-0.3-1.6-2.5-5.1-5.2-4.1c-0.9,0.7-2.3-0.4-1-1.8
		c0.7-1.1-0.2-2.2-1.5-2.2c-1.4,0,1.8-4.3-2.5-5.1c-4.3-0.8-7.6-1.8-9-5c-1.4-3.2-6-8.1-10.7-8.8c-3.5-0.5-2.7-3.8-7.9-4.8
		c-2.4,0-3-1-4.4-2.1c-0.6-1.9,1.3-4.3,0.7-6.8c-0.6-2.4,2.9-8.7-0.4-9.7c-1.6-1.1,0-3.8-1.4-4.8c-1.4-1.3-0.6-4.1-3.3-5.9
		c-2.7-1.8-0.1-4.1-0.9-4.9c-0.8-0.8-2.5-3.8-2.2-6.2c-1.4-1.3-4.1-7-5-8.9c-0.8-1.9-1.7-3.5,1-5.2c2.7-1.7,1.8-4.6,3.7-4.9
		c1.6-1.6,0.7-5.1-3.9-5.4c-1.9-0.8-5-7-3.4-10c1.9-2.7-2.5-3.2-0.9-5.7c0.8-1.4,1.6-1.6,1.3-3.3c-0.3-1.6,1.9-1.1,1.6,1.1
		c0,1.6,2.7,2.1,2.5,4c0,1.3,3,1.9,2.7,1.1c0,0,0.2-3.2-1.4-4.6c-2.5-2.1,1.6-5.4-0.9-7c0.3-0.8,1.6-1.6,3.3,0
		c1.6,1.6,3.2-0.8,5.4,2.1c3.5,1.1,4.6,1,3-0.6c-1.6-1.6,1.1-2.7-1.1-2.4c-2.2,0.3-4.1-1-6.5-0.7c-0.3-1.6-1.1-3.3-5.4-2.7
		c-1.1,1.4-3,1.1-2.9,2.2c0,1.1-1.1,0.8-2.4-0.5c-2.2-0.8-4.1-2.7-2.2-5.9c1.3-1.9-1.8-10.5-4.8-15.6c-3-5.1-3.3-7.5-1-11.3
		c2.4-3.8-2-6.7,0.7-9.5c2.7-2.7,1.5-7.1,0.4-10.6c-1.1-3.5-5.6-11.6-3.4-13.2c2.2-1.7,8.3-5.8,7.2-11.2c0.3-1.1,5.6-6,5.6-8.2
		c0-2.2-0.7-10.5,0.7-11.6c1.3-1.1-0.6-1.9-0.6-1.9L85.1,175.9z"/>
	<path style="fill:#ECB09B;stroke:#FFFFFF;stroke-miterlimit:10;" d="M18,155.6l67,20.3l51.8,13.4c0,0,7.6-38.5,8.4-40.9
		c0.8-2.5,3.7-3.3,4.2-6.8c0.8-2.7-5.5-4-3.9-7.8c3-2.2,2.4-5.7,11.2-13.9c0.5-4.1,8-9,6.6-14.4c-0.8-3.1-0.8-2.4-2.2-3.5
		c0,0-1.1-3-2.2-5.1l-32.8-8.3c-2.7,1.7-12.5-3.1-15.1-0.1c-4.3,3.3-12.2-2.3-15.4,0.2c-5.9,0.6-9.8-5.8-13-4.7
		c-12.5-0.1-11.7-3.9-13.8-3.1c-3.5,0.6,1.8-11.6-3.7-13.2c-3.3-4-7.6-1.8-7.9-3.7c-2.2,0.6-1.1-3.5-6-1.6c-0.5,5.7-2.4,4.1-2.1,7.1
		c-0.2,3.2-0.1,5.5-1.4,7.2c-1-0.9-0.8-0.4-0.8,1.2c-0.9,2.7-5.1,13.3-6.4,15.5c-1.3,2.2-1.8,6-3.1,8.1c-1.3,2.2-2.3,8.7-3.9,10.3
		c-1.6,1.6-0.5,3.8-1.8,4.9c-1.3,1.1-2.7,3.2-3.5,4.1c-1.6,1.9,1.6,1.9,0.6,3.5c-1.1,1.6-4.6-0.2-4.8,3c-0.2,3.2-2.4,5.4-3.7,6.3
		c-1.3,0.8-0.5,1.4-0.8,3.8c-0.2,2.4,1.7,4.9-2.1,7.9C16,147.2,15.8,153.7,18,155.6"/>
	<path style="fill:#ECB09B;stroke:#FFFFFF;stroke-width:0.5;stroke-miterlimit:3.864;" d="M18,155.6l67,20.3l51.8,13.4
		c0,0,7.6-38.5,8.4-40.9c0.8-2.5,3.7-3.3,4.2-6.8c0.8-2.7-5.5-4-3.9-7.8c3-2.2,2.4-5.7,11.2-13.9c0.5-4.1,8-9,6.6-14.4
		c-0.8-3.1-0.8-2.4-2.2-3.5c0,0-1.1-3-2.2-5.1l-32.8-8.3c-2.7,1.7-12.5-3.1-15.1-0.1c-4.3,3.3-12.2-2.3-15.4,0.2
		c-5.9,0.6-9.8-5.8-13-4.7c-12.5-0.1-11.7-3.9-13.8-3.1c-3.5,0.6,1.8-11.6-3.7-13.2c-3.3-4-7.6-1.8-7.9-3.7c-2.2,0.6-1.1-3.5-6-1.6
		c-0.5,5.7-2.4,4.1-2.1,7.1c-0.2,3.2-0.1,5.5-1.4,7.2c-1-0.9-0.8-0.4-0.8,1.2c-0.9,2.7-5.1,13.3-6.4,15.5c-1.3,2.2-1.8,6-3.1,8.1
		c-1.3,2.2-2.3,8.7-3.9,10.3c-1.6,1.6-0.5,3.8-1.8,4.9c-1.3,1.1-2.7,3.2-3.5,4.1c-1.6,1.9,1.6,1.9,0.6,3.5c-1.1,1.6-4.6-0.2-4.8,3
		c-0.2,3.2-2.4,5.4-3.7,6.3c-1.3,0.8-0.5,1.4-0.8,3.8c-0.2,2.4,1.7,4.9-2.1,7.9C16,147.2,15.8,153.7,18,155.6z"/>
	<path style="fill:#ECB09B;stroke:#FFFFFF;stroke-miterlimit:10;" d="M57.2,64c0.3,1.9,4.6-0.3,7.9,3.7c5.4,1.6,0.2,13.8,3.7,13.2
		c2.2-0.8,1.4,3,13.8,3.1c3.2-1.1,7.1,5.3,13,4.7c3.2-2.5,11.1,3.1,15.4-0.2c2.7-3,12.5,1.7,15.1,0.1l32.8,8.3l15.4-67.5
		c-38.5-10.6-82-23.9-85-24.9c-1.1-0.5-1.3,0-0.5,1.6c-0.3,1.4,1.9,1.1,1.9,3c0,1.9,1.1,3.8-0.5,4.3c-0.2,1.9,1.1,3.8-0.5,4.1
		c-0.8,1.6-0.5,3,0.3,3c0.8,0,1.1,1.3,0.3,1.3c-0.8,0,0,1.9,0,2.7c0,0.8-1.6,0.8-0.5,2.2c1.1,1.3,2.4,0.8,0.3,3.2
		c-2.1,2.5-4.5,4.1-4.2,6.5c0.3,2.4-0.7,6.8-4.5,7.6c-2.2,0.6-3.3,1.4-4.3,2.2C76.2,47,74.6,47,74.6,47s-2.4,0.6-1.7-3.2
		c0.5-1.1,2.7-3.8-0.6-3c-0.5-0.8,0.5-3.5,0.5-3.5s5.6-7.4,6.7-5.8c0.6,1.6,1.9-0.3,1.9-0.3s1.9,0.2,1.3-3.5c0-1.6-1.6-1.3-1.9-2.4
		c-0.3-1.1-0.3-1.9,0.5-1.6c0.8,0.3,0.3,1.9-0.8,0.3c-1.1-1.6-1.9-2.1-4.9-2.6c-3-0.5-1.7-2.7-7.1-3.7c-1.4-1.3-4.1-2.4-5.4-3.4
		c-1.4-1.1-7.4-8.8-8.1-3.4c-0.8,5.4,1.5,12.1,0.4,15.1c-1,3-0.4,12-0.6,14.1c0,1.3,3.3,1,3.3,2.9c0,1.9-1.6,3-3.2,3.5
		c-1.6,0.6-0.2,2.4-0.2,3.2c0,0.8,4.3-0.3,2.7,1.3c-1.6,1.6-2.7,2.7-2.9,4.6c-0.3,1.9-5.4,0.6-2.1,3.5c3.3,3,5.4,0.2,5.4,2.4
		C57.8,63.7,61.5,60.9,57.2,64"/>
	<path style="fill:#ECB09B;stroke:#FFFFFF;stroke-width:0.5;stroke-miterlimit:3.864;" d="M57.2,64c0.3,1.9,4.6-0.3,7.9,3.7
		c5.4,1.6,0.2,13.8,3.7,13.2c2.2-0.8,1.4,3,13.8,3.1c3.2-1.1,7.1,5.3,13,4.7c3.2-2.5,11.1,3.1,15.4-0.2c2.7-3,12.5,1.7,15.1,0.1
		l32.8,8.3l15.4-67.5c-38.5-10.6-82-23.9-85-24.9c-1.1-0.5-1.3,0-0.5,1.6c-0.3,1.4,1.9,1.1,1.9,3c0,1.9,1.1,3.8-0.5,4.3
		c-0.2,1.9,1.1,3.8-0.5,4.1c-0.8,1.6-0.5,3,0.3,3c0.8,0,1.1,1.3,0.3,1.3c-0.8,0,0,1.9,0,2.7c0,0.8-1.6,0.8-0.5,2.2
		c1.1,1.3,2.4,0.8,0.3,3.2c-2.1,2.5-4.5,4.1-4.2,6.5c0.3,2.4-0.7,6.8-4.5,7.6c-2.2,0.6-3.3,1.4-4.3,2.2C76.2,47,74.6,47,74.6,47
		s-2.4,0.6-1.7-3.2c0.5-1.1,2.7-3.8-0.6-3c-0.5-0.8,0.5-3.5,0.5-3.5s5.6-7.4,6.7-5.8c0.6,1.6,1.9-0.3,1.9-0.3s1.9,0.2,1.3-3.5
		c0-1.6-1.6-1.3-1.9-2.4c-0.3-1.1-0.3-1.9,0.5-1.6c0.8,0.3,0.3,1.9-0.8,0.3c-1.1-1.6-1.9-2.1-4.9-2.6c-3-0.5-1.7-2.7-7.1-3.7
		c-1.4-1.3-4.1-2.4-5.4-3.4c-1.4-1.1-7.4-8.8-8.1-3.4c-0.8,5.4,1.5,12.1,0.4,15.1c-1,3-0.4,12-0.6,14.1c0,1.3,3.3,1,3.3,2.9
		c0,1.9-1.6,3-3.2,3.5c-1.6,0.6-0.2,2.4-0.2,3.2c0,0.8,4.3-0.3,2.7,1.3c-1.6,1.6-2.7,2.7-2.9,4.6c-0.3,1.9-5.4,0.6-2.1,3.5
		c3.3,3,5.4,0.2,5.4,2.4C57.8,63.7,61.5,60.9,57.2,64z"/>
	<path style="fill:#ECB09B;stroke:#FFFFFF;stroke-miterlimit:10;" d="M188.5,32.4c0,0-4.3,20.6-4.8,24.7c0.3,4.1,3.3,4,2.8,11.1
		c0.3,5.1,7.4,5.1,8.9,18.8c2.2,0.8,3.3,4.6,5.7,4.5c4.3-0.3,0.3,3-1.8,6.5c-2.6,4.4-2.3,10.6-1.7,11.9c2.4,0.8-1.6,2.2-2.9,3.6
		c-3.2,3.3,3.7,7,6,4c2.9-3.3,4.6,0.5,4.4,3.2c-0.5,4.3,3.3,7,2.9,17.8c1.1-0.8,2.4-0.6,3.8,0.2c4.5,1.2,0.1,10.1,5.5,12.1
		c0,0,0.5-0.8,0.7-1c2-1.8,6.7-0.3,9.1-0.8c2.8-1.4,7.1,0.6,8.6-0.1c0.6-1.4,4,4.4,4.4,0.7c2.2-4.2,3.6-2.3,4.8-0.6l1.5-0.1l1.2-8.5
		c6.2,1,71.7,13.2,113.9,16.3l0.1,0c0.9-10.1,1.6-17.2,2-23.2l5.3-72.3C296.7,53.8,211.1,38,188.5,32.4"/>
	<path style="fill:#ECB09B;stroke:#FFFFFF;stroke-width:0.5;stroke-miterlimit:3.864;" d="M188.5,32.4c0,0-4.3,20.6-4.8,24.7
		c0.3,4.1,3.3,4,2.8,11.1c0.3,5.1,7.4,5.1,8.9,18.8c2.2,0.8,3.3,4.6,5.7,4.5c4.3-0.3,0.3,3-1.8,6.5c-2.6,4.4-2.3,10.6-1.7,11.9
		c2.4,0.8-1.6,2.2-2.9,3.6c-3.2,3.3,3.7,7,6,4c2.9-3.3,4.6,0.5,4.4,3.2c-0.5,4.3,3.3,7,2.9,17.8c1.1-0.8,2.4-0.6,3.8,0.2
		c4.5,1.2,0.1,10.1,5.5,12.1c0,0,0.5-0.8,0.7-1c2-1.8,6.7-0.3,9.1-0.8c2.8-1.4,7.1,0.6,8.6-0.1c0.6-1.4,4,4.4,4.4,0.7
		c2.2-4.2,3.6-2.3,4.8-0.6l1.5-0.1l1.2-8.5c6.2,1,71.7,13.2,113.9,16.3l0.1,0c0.9-10.1,1.6-17.2,2-23.2l5.3-72.3
		C296.7,53.8,211.1,38,188.5,32.4z"/>
	<path style="fill:#B9CEBC;stroke:#FFFFFF;stroke-miterlimit:10;" d="M826.5,586.9c-0.2,1.6-1.7,3.5-1.7,4.6c0,1.1-0.8,1.4-0.5,4.3
		c0.3,3,0.6,5.7-0.2,7c-0.8,1.4-2.4,1.7-3.5,2.2c-1.1,0.6-2.7,2.5-2.7,2.5s-1.9,0.3-3,0.3c-1.1,0-0.8,1.9-5.4,2
		c-0.8,0.6-2.2-2.1-2.7-1.1c-0.5,1.1,1.3-5.7-2-7.3c-0.8-1.9-1.4-3.8-2.5-3.5c-0.6-1.3-3.9-6.2-5.8-6.4c-1.9-0.3-4-0.5-6-3.2
		c-1.4-3-2-8.1-3.1-8.6c-1.4-0.8-3.8-2.4-4.9-5.9c-1.1-3.5-0.3-5.4-3-5.1c1.6,0.8,2.5,3.8-1.6,2.7c-1.9-0.8-5.2-5.4-6-7.5
		c-0.8-2.2-1.4-5.1-3.1-6.5c-1.6-1.3,1.6-3.5,0.8-4.6c0-1.4,3.7-4.1,2.1-5.7c-1.4-1.3-2.5-1.9-1.6,0.3c0,1.6-1.3,1.6-2.2-0.5
		c-0.8-2.2-2.5-2.1-1.6-0.5c0.8,1.6,2,5.4,0.6,5.4c-1.4,0-2.2-2.4-3.5-1.6c-2.2-3.8,2.2-16.5,0.3-20.5c-1.6-1.9,1-5.7-4.4-8.9
		c0-1.6-0.9-3.8-4.4-2.1c-0.2,1.9-0.8,3.8-1.3,1.9c-0.6-1.9-2.2-7-4.4-7.5c-2.2-0.5-2.7-1.3-3.9-5.4c-1.1,0-2.2-1.3-6.5-5.6
		c-1.3,0.6-4.4-3.2-6.8-2.4c-2.4,0.9-2.4,0.3-3.5,0.3c-1.1,0-3.5,2.2-2.9,3.6c0.6,1.3-3.5,0-4.6,1.9c-1.1,1.9-2.8,4.4-5.6,3.6
		c-1.9-0.5,3.3,2.4-4.6,2.2c-3.2,1.4-4,1.7-4.1,0.6c0.3-2.2,0.9-0.7,0.8-2.5c-0.3-3.8-5.7-4-6.3-5.9c-2.2-2.1,2.9-3.8-3.3-3.8
		c0.8,0.8,3.3,2.9-3.8,1.1c-3.3-1.3-4.4-2.7-8.1-2.3c-5.2-1,6.2-0.9,2.4-2.7c-3-1.1-5.7-0.5-8.4,1.7c-1.9,1.4-6.2,0.6-7.6,0.6
		c-1.3,0,4.6-2.2-1.4-2.7c-3.3-0.2-0.8,0.8-2.9,2.7c-1.3,1.9-4.8,3.5-3.5,0.7c3.2-5.2-6.2-3.7-3.9-13.2L711,482
		c0.3,3.8,0.8,4.6,2.2,4.9c0,0,42.7-3.1,47.6-3.4c4.9-0.3,4.3,0.5,6.2,2.9c6.8,4.3,0.2-5.1,2.4-8.7c1.9-4.3,3,1.9,8.6-0.6
		c2.4,0.3,2.9,1.4,2.6,2.4c-0.2,1.1,1.7,2.1,1.4,3.5c-0.3,1.3-5.4,1.4-3.5,1.9c1.9,0.5,5.4-0.1,5.4,1.8c1.4,5.1,2.5,5.7,2.5,6.5
		c0,0.8,6.7,15.3,8.3,17.5c1.6,2.1,5.5,7,9.6,11c0.8,1.6,0.3,2.7-1.6,2.5c-1.1-0.3-2.2-5.1-2.5-1.9c0,2.4,1.9,4,3.1,6.2
		c0.8,1.6,1.4,1.9,1.4,4.6c0.8,2.7,12.7,21.2,15.2,26.3c2.5,5.1,4.1,6.3,4.7,7.5C828.1,573.9,824.5,583.1,826.5,586.9"/>
	<path style="fill:#B9CEBC;stroke:#FFFFFF;stroke-width:0.5;stroke-miterlimit:3.864;" d="M826.5,586.9c-0.2,1.6-1.7,3.5-1.7,4.6
		c0,1.1-0.8,1.4-0.5,4.3c0.3,3,0.6,5.7-0.2,7c-0.8,1.4-2.4,1.7-3.5,2.2c-1.1,0.6-2.7,2.5-2.7,2.5s-1.9,0.3-3,0.3
		c-1.1,0-0.8,1.9-5.4,2c-0.8,0.6-2.2-2.1-2.7-1.1c-0.5,1.1,1.3-5.7-2-7.3c-0.8-1.9-1.4-3.8-2.5-3.5c-0.6-1.3-3.9-6.2-5.8-6.4
		c-1.9-0.3-4-0.5-6-3.2c-1.4-3-2-8.1-3.1-8.6c-1.4-0.8-3.8-2.4-4.9-5.9c-1.1-3.5-0.3-5.4-3-5.1c1.6,0.8,2.5,3.8-1.6,2.7
		c-1.9-0.8-5.2-5.4-6-7.5c-0.8-2.2-1.4-5.1-3.1-6.5c-1.6-1.3,1.6-3.5,0.8-4.6c0-1.4,3.7-4.1,2.1-5.7c-1.4-1.3-2.5-1.9-1.6,0.3
		c0,1.6-1.3,1.6-2.2-0.5c-0.8-2.2-2.5-2.1-1.6-0.5c0.8,1.6,2,5.4,0.6,5.4c-1.4,0-2.2-2.4-3.5-1.6c-2.2-3.8,2.2-16.5,0.3-20.5
		c-1.6-1.9,1-5.7-4.4-8.9c0-1.6-0.9-3.8-4.4-2.1c-0.2,1.9-0.8,3.8-1.3,1.9c-0.6-1.9-2.2-7-4.4-7.5c-2.2-0.5-2.7-1.3-3.9-5.4
		c-1.1,0-2.2-1.3-6.5-5.6c-1.3,0.6-4.4-3.2-6.8-2.4c-2.4,0.9-2.4,0.3-3.5,0.3c-1.1,0-3.5,2.2-2.9,3.6c0.6,1.3-3.5,0-4.6,1.9
		c-1.1,1.9-2.8,4.4-5.6,3.6c-1.9-0.5,3.3,2.4-4.6,2.2c-3.2,1.4-4,1.7-4.1,0.6c0.3-2.2,0.9-0.7,0.8-2.5c-0.3-3.8-5.7-4-6.3-5.9
		c-2.2-2.1,2.9-3.8-3.3-3.8c0.8,0.8,3.3,2.9-3.8,1.1c-3.3-1.3-4.4-2.7-8.1-2.3c-5.2-1,6.2-0.9,2.4-2.7c-3-1.1-5.7-0.5-8.4,1.7
		c-1.9,1.4-6.2,0.6-7.6,0.6c-1.3,0,4.6-2.2-1.4-2.7c-3.3-0.2-0.8,0.8-2.9,2.7c-1.3,1.9-4.8,3.5-3.5,0.7c3.2-5.2-6.2-3.7-3.9-13.2
		L711,482c0.3,3.8,0.8,4.6,2.2,4.9c0,0,42.7-3.1,47.6-3.4c4.9-0.3,4.3,0.5,6.2,2.9c6.8,4.3,0.2-5.1,2.4-8.7c1.9-4.3,3,1.9,8.6-0.6
		c2.4,0.3,2.9,1.4,2.6,2.4c-0.2,1.1,1.7,2.1,1.4,3.5c-0.3,1.3-5.4,1.4-3.5,1.9c1.9,0.5,5.4-0.1,5.4,1.8c1.4,5.1,2.5,5.7,2.5,6.5
		c0,0.8,6.7,15.3,8.3,17.5c1.6,2.1,5.5,7,9.6,11c0.8,1.6,0.3,2.7-1.6,2.5c-1.1-0.3-2.2-5.1-2.5-1.9c0,2.4,1.9,4,3.1,6.2
		c0.8,1.6,1.4,1.9,1.4,4.6c0.8,2.7,12.7,21.2,15.2,26.3c2.5,5.1,4.1,6.3,4.7,7.5C828.1,573.9,824.5,583.1,826.5,586.9z"/>
	<path style="fill:#E1CCB8;stroke:#FFFFFF;stroke-miterlimit:10;" d="M575,524.1c0,0-0.4,2-3.9,3.2c-4,1.1-7.6,0.1-10.8-1.2
		c-7.9-4.2-19-2.2-20.9-1.9c-1.9,0.3-2.9,1.7-3.8,1.7c-0.8,0,0.2-3,1.3-3.8c1.1-0.8,2.4-3.3,2.4-5.2c0,0-0.1-10,0.1-13.5
		c1.3-1.1,2.1-1.9,2.1-3.8c3.2-2.2,2.3-9.5,0.9-11.6c-1.6-1.1-0.1-3.8-2.5-5.9c-4.1-0.8,0.8-4.9-7.4-12.1l-0.1-24.7l55.2-0.5l0,2.6
		l2.7,0c0.1,0.9-2,1.8-2.4,3.9c2.6,0.2,0.3,0.9,2.2,6.2c2.7,0.6,1.1,2.8,3.1,3.3l0,1.1c-3.1,0.4-1.9,2.7-3.9,6.5
		c0,2.7-3.1,1.8-5.1,10.1l-1.3,0l0,4.2c-1.4-1.1,0.4,3.9-0.5,4.2c-1.1,0.4-1.7,3.3-0.8,3.5c0.9,0.3,0.8,1.2,1.1,2.4l34.9-1.6
		c0,3.2-1.3,4.3-1.6,6.8c0,5,4.1,3.4,5.5,10.8c-2.2,1.3-4.1,0-4.7,1c-0.8,1.3-2.4-3.3-4.6-2.7c-0.8,0.3-2.6-1.7-3,0
		c-0.6,2.7-4.3,4-2.2,5.7c2.7,1.4,6.2,3.3,8.9,1.1c2.7-2.2,9.7-3.3,3.2,0.5l2.2,1.6c2.2-3.3,8.6-3.8,9.2-6c0.5,4.9,1.6,7.6-2.7,8.6
		c-9.2,2.2,2.2,3.8-5.4,4.9c1.6,4.9,11.9,7,11.4,10.8c-2.7,4.9-4.3,5.4-5.4,1.1c-1.1-4.3-9.2-4.3-9.7-6c-0.5-1.6-2.2-2.7-4.3,0.6
		c-2.2,3.2,1.1,7-3.8,5.4c-2.7-1.6-6-3.8-8.7,1.6c-1.1,2.2-2.2,2.7-3.8,0.5c-1.6-2.2-4.3-3.3-6.5-2.7c-2.2,0.5-2.7-1.1-1.1-3.2
		c1.6-2.2-1.1-3.2-3.2-3.2C585.4,528.2,579.3,520.3,575,524.1"/>
	<path style="fill:#E1CCB8;stroke:#FFFFFF;stroke-width:0.5;stroke-miterlimit:3.864;" d="M575,524.1c0,0-0.4,2-3.9,3.2
		c-4,1.1-7.6,0.1-10.8-1.2c-7.9-4.2-19-2.2-20.9-1.9c-1.9,0.3-2.9,1.7-3.8,1.7c-0.8,0,0.2-3,1.3-3.8c1.1-0.8,2.4-3.3,2.4-5.2
		c0,0-0.1-10,0.1-13.5c1.3-1.1,2.1-1.9,2.1-3.8c3.2-2.2,2.3-9.5,0.9-11.6c-1.6-1.1-0.1-3.8-2.5-5.9c-4.1-0.8,0.8-4.9-7.4-12.1
		l-0.1-24.7l55.2-0.5l0,2.6l2.7,0c0.1,0.9-2,1.8-2.4,3.9c2.6,0.2,0.3,0.9,2.2,6.2c2.7,0.6,1.1,2.8,3.1,3.3l0,1.1
		c-3.1,0.4-1.9,2.7-3.9,6.5c0,2.7-3.1,1.8-5.1,10.1l-1.3,0l0,4.2c-1.4-1.1,0.4,3.9-0.5,4.2c-1.1,0.4-1.7,3.3-0.8,3.5
		c0.9,0.3,0.8,1.2,1.1,2.4l34.9-1.6c0,3.2-1.3,4.3-1.6,6.8c0,5,4.1,3.4,5.5,10.8c-2.2,1.3-4.1,0-4.7,1c-0.8,1.3-2.4-3.3-4.6-2.7
		c-0.8,0.3-2.6-1.7-3,0c-0.6,2.7-4.3,4-2.2,5.7c2.7,1.4,6.2,3.3,8.9,1.1c2.7-2.2,9.7-3.3,3.2,0.5l2.2,1.6c2.2-3.3,8.6-3.8,9.2-6
		c0.5,4.9,1.6,7.6-2.7,8.6c-9.2,2.2,2.2,3.8-5.4,4.9c1.6,4.9,11.9,7,11.4,10.8c-2.7,4.9-4.3,5.4-5.4,1.1c-1.1-4.3-9.2-4.3-9.7-6
		c-0.5-1.6-2.2-2.7-4.3,0.6c-2.2,3.2,1.1,7-3.8,5.4c-2.7-1.6-6-3.8-8.7,1.6c-1.1,2.2-2.2,2.7-3.8,0.5c-1.6-2.2-4.3-3.3-6.5-2.7
		c-2.2,0.5-2.7-1.1-1.1-3.2c1.6-2.2-1.1-3.2-3.2-3.2C585.4,528.2,579.3,520.3,575,524.1z"/>
	<path style="fill:#E1CCB8;stroke:#FFFFFF;stroke-miterlimit:10;" d="M535.7,525.8c-0.8,0,0.2-3,1.3-3.8c1.1-0.8,2.4-3.3,2.4-5.2
		c0,0-0.1-10,0.1-13.5c1.3-1.1,2.1-1.9,2.1-3.8c3.2-2.2,2.3-9.5,0.9-11.6c-1.6-1.1,0-3.8-2.5-5.9c-4.1-0.8,0.8-4.9-7.4-12.1
		l-0.1-24.7l-0.1-11.4c-2.4-1.6-6.2,0.1-8.7-1c-11.7-4-13.1-10.4-17.1-6.6c-1.9,2.5-5.7-2.4-8.7-0.5c-1.9,4.4-7.3-2.1-10.2,3.9
		c-0.5,1.6-3.8,1.4-3.5-0.8c-3.3-1.6-3.3-3.2-6-2.9c-2.1,3-3-4.3-5.7,0.9c-0.8,4-2.1,2.7-3,0.6c0.5-2.4,0.3-2.7-3.3-2.7
		c-0.5,2.4-1.3,1.6-2.7,1.6c-1.3,0-1.9-5.1-4.3-1.3c-2.1,1.9-6.7,2.5-4.3-1.3c-2.5-2.1-0.3-4.3-6-3.7c-3.8,1.7-6.5-1-7.6,0.3
		c-3.8,1.4-4.1-2.7-6.5-2.6c-5.9,1.4-0.8-2.4-4.4-4.3c-4.1-2.7-1.3,1.9-5.1-0.2c-8.7,0.1-2.5-4.3-8.7-4.5l-0.4-44.6l-53.2-3.7
		L354.4,465l-68.5-5.9l0,4.3c6,1.9,3.7,9.4,7,10.8c4.1,0.5,2.4,5.1,5.7,5.7c4.9,1.1,3.8,6.5,5.9,8.4c2.4,1.1,9.5,4.3,10.8,10.6
		l0.3,2.7c-0.3,2.7,5.1,4.3,2.4,7.3c-2.2,10.5,11.1,16.8,11.4,19.2c1.1,2.7,7.3-0.3,8.7,4.6c0.3,3,1.6,1.6,1.6,2.7
		c0,1.1,5.7,6.8,8.4,2.2c2.7-4.6,4.3-1.3,4.9-5.1c0.5-3.8,4.9-10.3,6.5-11.1c3-0.3,1.9-3.5,4.3-3c1.6,0.5,10.3,2.4,10.3,2.4
		c5.1,2.4,5.4-2.2,8.4,1.1c12.4,15.1,12.7,6.5,15.2,15.4c0.5,4.6,4,7.9,3.2,10.8c-0.3,1.6,3,3,3.2,6.5c0.3,3.5,7.8,8.7,8.1,12.4
		c0.5,7.3,4.6,1.3,6.8,8.4c0.5,4.1,3.5,10.3,5.9,13.5c2.4,3.3,2.4,4.3,2.4,6.8c0,2.4,2.7,0,3.5,3.2c0.8,3.2,4.3,2.2,5.4,3.8
		c1.1,1.6,4.9,1.2,5.7,2.7c1.6,3,4.9,0.8,5.7,3.2c1.3,2.2,10.3-0.8,12.7,2.7c1.9,3.8,9.2,3.2,7.6,0.3c-1.3-0.5-0.5-5.1-3-5.1
		c0.5-2.2-1.3-3.3-1.9-6c2.2-0.5,2.7-3.8,1.1-4.9c-1.6-1.1,1.1-4.9-0.5-5.4c2.7,0,1.6-9.2,0-6.5c0,0-4.9,2.7-2.2-3
		c2.2-1.1,5.9,1.9,5.4-3.5c2.2-2.7-1.1-2.2-0.8-4.6c-1.9,0-5.9-2.7-1.6-2.7c4.3,0,8.6,2.2,8.1-3c0-1.4-2.7,3.2-2.2-1.1
		c0.5-4.3,4,0.3,4.6-3.8c1.3,0.8,3.2,0.8,2.4-2.7c-0.8-3.5-1.9-1.9,0.3-2.4c2.2-0.5,4.3,4.3,5.4,1.6c1.1-2.7,0.8-4.6-1.9-4.6
		c-1.1,0,0.8-7.8,1.1-3.5c0.8,1.3,5.1,2.2,3.8-0.6c3-0.8,4.3,0.6,4-1.1c-0.3-1.6-0.5,5.4,2.4,2.7c3-2.7,5.9-3.8,4.6-1.6
		c-1.4,2.2-7.6,6.5-9.5,6.8c-1.9,0.3,1.3,3,8.6-3.3c7.3-6.2,17.7-12.2,13.1-11.9c-1.1,0-0.6-3.3,3.2-4.1c3.8-0.8,2.4-3.3,0.8-3
		c1.3-2.7-1.7-4.8-0.3-8.3c3.2,0.8,8.4-5.1,7.3-1.3c-1.1,2.7-5.1,5.9-0.5,5.4c4.6-0.5,2.2-0.5,0.5,2.2c-1.6,2.7-5.1,5.1,0.3,2.2
		c7.5-4.2,4.3-6.8,10.8-8.1C533.1,526.9,535.7,525.8,535.7,525.8"/>
	<path style="fill:#E1CCB8;stroke:#FFFFFF;stroke-width:0.5;stroke-miterlimit:3.864;" d="M535.7,525.8c-0.8,0,0.2-3,1.3-3.8
		c1.1-0.8,2.4-3.3,2.4-5.2c0,0-0.1-10,0.1-13.5c1.3-1.1,2.1-1.9,2.1-3.8c3.2-2.2,2.3-9.5,0.9-11.6c-1.6-1.1,0-3.8-2.5-5.9
		c-4.1-0.8,0.8-4.9-7.4-12.1l-0.1-24.7l-0.1-11.4c-2.4-1.6-6.2,0.1-8.7-1c-11.7-4-13.1-10.4-17.1-6.6c-1.9,2.5-5.7-2.4-8.7-0.5
		c-1.9,4.4-7.3-2.1-10.2,3.9c-0.5,1.6-3.8,1.4-3.5-0.8c-3.3-1.6-3.3-3.2-6-2.9c-2.1,3-3-4.3-5.7,0.9c-0.8,4-2.1,2.7-3,0.6
		c0.5-2.4,0.3-2.7-3.3-2.7c-0.5,2.4-1.3,1.6-2.7,1.6c-1.3,0-1.9-5.1-4.3-1.3c-2.1,1.9-6.7,2.5-4.3-1.3c-2.5-2.1-0.3-4.3-6-3.7
		c-3.8,1.7-6.5-1-7.6,0.3c-3.8,1.4-4.1-2.7-6.5-2.6c-5.9,1.4-0.8-2.4-4.4-4.3c-4.1-2.7-1.3,1.9-5.1-0.2c-8.7,0.1-2.5-4.3-8.7-4.5
		l-0.4-44.6l-53.2-3.7L354.4,465l-68.5-5.9l0,4.3c6,1.9,3.7,9.4,7,10.8c4.1,0.5,2.4,5.1,5.7,5.7c4.9,1.1,3.8,6.5,5.9,8.4
		c2.4,1.1,9.5,4.3,10.8,10.6l0.3,2.7c-0.3,2.7,5.1,4.3,2.4,7.3c-2.2,10.5,11.1,16.8,11.4,19.2c1.1,2.7,7.3-0.3,8.7,4.6
		c0.3,3,1.6,1.6,1.6,2.7c0,1.1,5.7,6.8,8.4,2.2c2.7-4.6,4.3-1.3,4.9-5.1c0.5-3.8,4.9-10.3,6.5-11.1c3-0.3,1.9-3.5,4.3-3
		c1.6,0.5,10.3,2.4,10.3,2.4c5.1,2.4,5.4-2.2,8.4,1.1c12.4,15.1,12.7,6.5,15.2,15.4c0.5,4.6,4,7.9,3.2,10.8c-0.3,1.6,3,3,3.2,6.5
		c0.3,3.5,7.8,8.7,8.1,12.4c0.5,7.3,4.6,1.3,6.8,8.4c0.5,4.1,3.5,10.3,5.9,13.5c2.4,3.3,2.4,4.3,2.4,6.8c0,2.4,2.7,0,3.5,3.2
		c0.8,3.2,4.3,2.2,5.4,3.8c1.1,1.6,4.9,1.2,5.7,2.7c1.6,3,4.9,0.8,5.7,3.2c1.3,2.2,10.3-0.8,12.7,2.7c1.9,3.8,9.2,3.2,7.6,0.3
		c-1.3-0.5-0.5-5.1-3-5.1c0.5-2.2-1.3-3.3-1.9-6c2.2-0.5,2.7-3.8,1.1-4.9c-1.6-1.1,1.1-4.9-0.5-5.4c2.7,0,1.6-9.2,0-6.5
		c0,0-4.9,2.7-2.2-3c2.2-1.1,5.9,1.9,5.4-3.5c2.2-2.7-1.1-2.2-0.8-4.6c-1.9,0-5.9-2.7-1.6-2.7c4.3,0,8.6,2.2,8.1-3
		c0-1.4-2.7,3.2-2.2-1.1c0.5-4.3,4,0.3,4.6-3.8c1.3,0.8,3.2,0.8,2.4-2.7c-0.8-3.5-1.9-1.9,0.3-2.4c2.2-0.5,4.3,4.3,5.4,1.6
		c1.1-2.7,0.8-4.6-1.9-4.6c-1.1,0,0.8-7.8,1.1-3.5c0.8,1.3,5.1,2.2,3.8-0.6c3-0.8,4.3,0.6,4-1.1c-0.3-1.6-0.5,5.4,2.4,2.7
		c3-2.7,5.9-3.8,4.6-1.6c-1.4,2.2-7.6,6.5-9.5,6.8c-1.9,0.3,1.3,3,8.6-3.3c7.3-6.2,17.7-12.2,13.1-11.9c-1.1,0-0.6-3.3,3.2-4.1
		c3.8-0.8,2.4-3.3,0.8-3c1.3-2.7-1.7-4.8-0.3-8.3c3.2,0.8,8.4-5.1,7.3-1.3c-1.1,2.7-5.1,5.9-0.5,5.4c4.6-0.5,2.2-0.5,0.5,2.2
		c-1.6,2.7-5.1,5.1,0.3,2.2c7.5-4.2,4.3-6.8,10.8-8.1C533.1,526.9,535.7,525.8,535.7,525.8z"/>
	<line style="fill:#E1CCB8;stroke:#FFFFFF;stroke-miterlimit:10;" x1="587.6" y1="444.6" x2="532.5" y2="445.1"/>
	
		<line style="fill:#E1CCB8;stroke:#FFFFFF;stroke-width:0.5;stroke-miterlimit:3.864;" x1="587.6" y1="444.6" x2="532.5" y2="445.1"/>
	<line style="fill:#E1CCB8;stroke:#FFFFFF;stroke-miterlimit:10;" x1="587.6" y1="444.6" x2="532.5" y2="445.1"/>
	
		<line style="fill:#E1CCB8;stroke:#FFFFFF;stroke-width:0.5;stroke-miterlimit:3.864;" x1="587.6" y1="444.6" x2="532.5" y2="445.1"/>
	<path style="fill:#B9CEBC;stroke:#FFFFFF;stroke-miterlimit:10;" d="M884.2,206.1c1.3-0.9,4.4-4,6.6-3.6c2.2,0.4,2.3-1.7,4.1-2.5
		c1.7-0.9,1.7-1.3,3-1.3c6.7-2.8,3-1.1,1.7,0.6c-2.8,1.3-8.9,5.6-10.4,7.1c-3.5,2.2-1.1,2.2-4.3,4.1c-3.8,2.3-3.2,2-0.9-0.4
		c1.5-1.7-3.5,2-5,3c-0.7-0.9-3.2,3.7-3.9,1.7c-0.5-1.5-0.9-1.1-0.9,0c0,1.1-1.5,1.1-2.8,0.2c-1.3-0.9,1.3-1.7,2.2-3
		c0.9-1.3,3-2,3.5-3.2c0.4-1.3,2.7-1.2,3-1.5c1.3-1.5,4.4-4.1,4.9-4.7c0.4-0.6,2.7-3.9,3.8-2.4c1.9-0.5,3.8-2.4,3.3-1.1
		c-0.5,1.3-2.2,1.9-3.3,2.7C887.7,202.6,884.7,204.8,884.2,206.1"/>
	<path style="fill:#B9CEBC;stroke:#FFFFFF;stroke-width:0.5;stroke-miterlimit:3.864;" d="M884.2,206.1c1.3-0.9,4.4-4,6.6-3.6
		c2.2,0.4,2.3-1.7,4.1-2.5c1.7-0.9,1.7-1.3,3-1.3c6.7-2.8,3-1.1,1.7,0.6c-2.8,1.3-8.9,5.6-10.4,7.1c-3.5,2.2-1.1,2.2-4.3,4.1
		c-3.8,2.3-3.2,2-0.9-0.4c1.5-1.7-3.5,2-5,3c-0.7-0.9-3.2,3.7-3.9,1.7c-0.5-1.5-0.9-1.1-0.9,0c0,1.1-1.5,1.1-2.8,0.2
		c-1.3-0.9,1.3-1.7,2.2-3c0.9-1.3,3-2,3.5-3.2c0.4-1.3,2.7-1.2,3-1.5c1.3-1.5,4.4-4.1,4.9-4.7c0.4-0.6,2.7-3.9,3.8-2.4
		c1.9-0.5,3.8-2.4,3.3-1.1c-0.5,1.3-2.2,1.9-3.3,2.7C887.7,202.6,884.7,204.8,884.2,206.1z"/>
</g>
<g>
	<rect x="473.8" y="152" transform="matrix(0.9824 0.1868 -0.1868 0.9824 72.8332 -82.7367)" width="3" height="386"/>
	<g>
		<path d="M510.8,158.6l-7.1,2.7l-0.1-0.2l6.1-9.6c1.5-3.5,3-6.9,4.5-10.4c0.1,3.8,0.2,7.5,0.3,11.3l2.2,11.2l-0.2,0.2L510.8,158.6z
			"/>
	</g>
</g>
<g>
	<rect x="147.8" y="313.4" transform="matrix(0.2757 0.9612 -0.9612 0.2757 575.2794 -133.6033)" width="457.1" height="3"/>
	<g>
		<path d="M314.2,98.4l-5.1,5.6l-0.2-0.2l1.1-11.3c-0.2-3.8-0.5-7.5-0.7-11.3c1.8,3.3,3.6,6.6,5.4,10l7,9l0,0.2L314.2,98.4z"/>
	</g>
</g>
<g>
	
		<rect x="773.8" y="149.8" transform="matrix(0.9192 0.3938 -0.3938 0.9192 172.2973 -282.8664)" style="fill:#008B90;" width="3" height="257"/>
	<g>
		<path style="fill:#008B90;" d="M824.7,163.2l-7.5,1.1l0-0.3l8-8.1c2.2-3.1,4.4-6.1,6.6-9.2c-0.7,3.7-1.4,7.4-2.1,11.1l-0.3,11.4
			l-0.2,0.2L824.7,163.2z"/>
	</g>
</g>
<g>
	
		<rect x="782" y="304" transform="matrix(0.8847 0.4661 -0.4661 0.8847 267.6963 -321.3146)" style="fill:#008B90;" width="3" height="153.2"/>
	<g>
		<path style="fill:#008B90;" d="M817.7,315.7l-7.6,0.5l0-0.3l8.6-7.4c2.4-2.9,4.9-5.8,7.3-8.6c-1,3.6-2,7.3-3,10.9l-1.2,11.3
			l-0.2,0.1L817.7,315.7z"/>
	</g>
</g>
<g>
	
		<rect x="848.2" y="95.3" transform="matrix(0.7313 0.6821 -0.6821 0.7313 345.9695 -533.2608)" style="fill:#008B90;" width="3" height="154.2"/>
	<g>
		<path style="fill:#008B90;" d="M900.1,118.4l-7.4-1.5l0-0.3l10.3-4.9c3.1-2.1,6.2-4.3,9.3-6.4c-1.9,3.2-3.8,6.5-5.8,9.7l-4.1,10.6
			l-0.2,0.1L900.1,118.4z"/>
	</g>
</g>
<g>
	<rect x="120.1" y="464.2" transform="matrix(0.9109 0.4126 -0.4126 0.9109 217.7065 -76.9887)" width="334" height="3"/>
	<g>
		<path d="M138,398.1l0.9,7.5l-0.3,0l-7.9-8.2c-3-2.3-6-4.5-9.1-6.8c3.7,0.8,7.4,1.6,11.1,2.3l11.4,0.5l0.2,0.2L138,398.1z"/>
	</g>
</g>
<g>
	<rect x="550.4" y="174.2" transform="matrix(0.8219 0.5696 -0.5696 0.8219 310.2205 -248.142)" width="3" height="395.6"/>
	<g>
		<path d="M662.7,212.1l-7.6-0.5l0-0.3l9.5-6.3c2.8-2.6,5.5-5.1,8.3-7.7c-1.4,3.5-2.9,7-4.3,10.5l-2.6,11.1l-0.2,0.1L662.7,212.1z"
			/>
	</g>
</g>
<g>
	<rect x="527.2" y="341.6" transform="matrix(0.647 0.7625 -0.7625 0.647 536.3972 -241.1397)" width="3" height="234.4"/>
	<g>
		<path d="M615.5,385.1l-7.2-2.4l0.1-0.3l10.8-3.6c3.3-1.8,6.7-3.5,10-5.3c-2.3,3-4.6,6-6.9,9l-5.3,10l-0.2,0.1L615.5,385.1z"/>
	</g>
</g>
<g>
	<polygon points="440,535.9 438.6,533.3 614,436.3 727.8,464.2 757.5,497.4 755.3,499.4 726.2,466.9 614.4,439.5 	"/>
	<g>
		<path d="M754.2,495.9l2.2-7.3l0.3,0.1l3.9,10.7c1.9,3.3,3.7,6.6,5.6,9.9c-3.1-2.2-6.1-4.4-9.2-6.6l-10.2-5.1l-0.1-0.2L754.2,495.9
			z"/>
	</g>
</g>
<g>
	<rect x="16.3" y="308.4" transform="matrix(0.5599 0.8285 -0.8285 0.5599 383.2871 -101.7797)" width="542.3" height="3"/>
	<g>
		<path d="M137.4,87.9l-3.2,6.9l-0.2-0.1l-2.4-11.1c-1.4-3.5-2.8-7-4.2-10.5c2.7,2.6,5.5,5.2,8.2,7.8l9.4,6.4l0,0.2L137.4,87.9z"/>
	</g>
</g>
<g>
	<polygon style="fill:#BA141A;" points="89.7,377.9 29.1,179 67.5,62.8 122.5,39.5 123.7,42.2 69.9,65 32.3,179 92.6,377 	"/>
	<g>
		<path style="fill:#BA141A;" d="M120.1,42.1l-6.2-4.4l0.1-0.2l11.4-0.3c3.7-0.7,7.4-1.4,11.1-2.1c-3.1,2.2-6.2,4.4-9.2,6.6l-8.1,8
			l-0.2,0L120.1,42.1z"/>
	</g>
</g>
<g>
	<polygon style="fill:#008B90;" points="812,583.6 667.7,284.5 705,249 707.1,251.2 671.3,285.2 814.7,582.3 	"/>
	<g>
		<path style="fill:#008B90;" d="M703.7,252.3l-7.3-2l0.1-0.3l10.6-4.2c3.2-2,6.5-3.9,9.7-5.9c-2.1,3.1-4.2,6.3-6.3,9.4l-4.8,10.3
			l-0.2,0.1L703.7,252.3z"/>
	</g>
</g>
<g>
	<polygon style="fill:#BA141A;" points="31.9,179.9 29.5,178.1 61.1,136 93.3,137.6 93.1,140.6 62.5,139.1 	"/>
	<g>
		<path style="fill:#BA141A;" d="M90,139l-3.6-6.7l0.2-0.1l10.4,4.7c3.6,1,7.3,2,10.9,3c-3.7,0.6-7.4,1.3-11.2,1.9l-10.8,3.7
			l-0.2-0.1L90,139z"/>
	</g>
</g>
<g>
	<polygon points="375.9,310.6 373.1,309.7 424.2,152.7 497.5,106.2 499.1,108.7 426.7,154.6 	"/>
	<g>
		<path d="M495.5,109.2l-6.8-3.4l0.1-0.2l11.2-2.1c3.5-1.3,7.1-2.6,10.6-3.9c-2.7,2.7-5.4,5.3-8,8l-6.7,9.2l-0.2,0L495.5,109.2z"/>
	</g>
</g>
<g>
	<polygon points="345.9,209.5 260.6,174.7 164,177.7 163.9,174.7 261.2,171.7 261.5,171.8 347,206.8 	"/>
	<g>
		<path d="M167.2,176.1l4.1,6.4l-0.2,0.2l-10.7-3.9c-3.7-0.7-7.4-1.4-11.1-2.1c3.7-0.9,7.3-1.8,11-2.8l10.4-4.5l0.2,0.1L167.2,176.1
			z"/>
	</g>
</g>
<g>
	
		<rect x="78.6" y="336.9" transform="matrix(0.9872 0.1597 -0.1597 0.9872 55.4539 -13.3753)" style="fill:#BA141A;" width="64.6" height="3"/>
	<g>
		<path style="fill:#BA141A;" d="M139.6,343l-2.9-7l0.2-0.1l9.8,5.8c3.5,1.4,7,2.8,10.5,4.2c-3.8,0.2-7.5,0.4-11.3,0.6l-11.1,2.5
			l-0.2-0.1L139.6,343z"/>
	</g>
</g>
<g>
	<rect x="529.5" y="184.3" transform="matrix(0.7411 0.6714 -0.6714 0.7411 311.5406 -289.4348)" width="3" height="149.9"/>
	<g>
		<path d="M579.2,206.1l-7.5-1.4l0-0.3l10.2-5c3.1-2.2,6.1-4.4,9.2-6.6c-1.9,3.3-3.7,6.5-5.6,9.8l-4,10.7l-0.2,0.1L579.2,206.1z"/>
	</g>
</g>
<g>
	<rect x="161.2" y="392.1" transform="matrix(0.355 0.9349 -0.9349 0.355 498.5555 64.5295)" width="82.6" height="3"/>
	<g>
		<path d="M189,358l-4.7,6l-0.2-0.2l0.2-11.4c-0.6-3.7-1.1-7.5-1.7-11.2c2.1,3.2,4.1,6.3,6.2,9.5l7.7,8.4l0,0.2L189,358z"/>
	</g>
</g>
<g>
	
		<rect x="42.4" y="323.8" transform="matrix(0.9111 0.4122 -0.4122 0.9111 139.5481 3.5354)" style="fill:#BA141A;" width="38.4" height="3"/>
	<g>
		<path style="fill:#BA141A;" d="M47,318.7l0.9,7.5l-0.3,0l-7.9-8.2c-3-2.3-6-4.5-9.1-6.8c3.7,0.8,7.4,1.6,11.1,2.3l11.4,0.5
			l0.2,0.2L47,318.7z"/>
	</g>
</g>
<g>
	<rect x="292.7" y="282.3" transform="matrix(0.8779 0.4789 -0.4789 0.8779 176.8893 -126.1618)" width="86.3" height="3"/>
	<g>
		<path d="M300.8,264.7l0.4,7.6l-0.3,0l-7.3-8.8c-2.8-2.5-5.7-5-8.5-7.4c3.6,1.1,7.2,2.1,10.9,3.2l11.3,1.4l0.1,0.2L300.8,264.7z"/>
	</g>
</g>
<g>
	<rect x="334.4" y="285.3" transform="matrix(0.9935 0.1142 -0.1142 0.9935 37.8909 -36.3291)" width="3" height="54.2"/>
	<g>
		<path d="M333.2,336.1l6.9-3.2l0.1,0.2l-5.4,10c-1.2,3.6-2.5,7.1-3.7,10.7c-0.4-3.8-0.8-7.5-1.2-11.3l-3-11l0.1-0.2L333.2,336.1z"
			/>
	</g>
</g>
<g>
	
		<rect x="56.5" y="44.5" transform="matrix(0.3482 0.9374 -0.9374 0.3482 89.2103 -36.2652)" style="fill:#BA141A;" width="28.3" height="3"/>
	<g>
		<path style="fill:#BA141A;" d="M66.9,35.8l-4.7,6L62,41.6l0.3-11.4c-0.5-3.7-1-7.5-1.6-11.2c2,3.2,4.1,6.3,6.1,9.5l7.6,8.5l0,0.2
			L66.9,35.8z"/>
	</g>
</g>
<g>
	<polygon style="fill:#BA141A;" points="126.6,277.3 55.7,262.2 56.4,259.2 125.9,274 376.7,94.6 423.5,96.4 423.4,99.4 377.6,97.6 
			"/>
	<g>
		<path style="fill:#BA141A;" d="M420.3,97.7l-3.7-6.6l0.2-0.1l10.4,4.6c3.7,0.9,7.3,1.9,11,2.8c-3.7,0.7-7.4,1.3-11.1,2l-10.7,3.8
			l-0.2-0.1L420.3,97.7z"/>
	</g>
</g>
<g>
	<path style="fill:#BA141A;" d="M15,415.2h15.8v5.2H20.5v2.5h10v5h-10v2.9h10.4v4.9H15V415.2z"/>
	<path style="fill:#BA141A;" d="M33.5,415.2h6l7.8,10.8v-10.8h5.3v20.5h-5.1l-8.6-12v12h-5.3V415.2z"/>
	<path style="fill:#BA141A;" d="M60.6,420.3H54v-5.2h18.8v5.2h-6.6v15.3h-5.6V420.3z"/>
	<path style="fill:#BA141A;" d="M83.3,429.5h-3.6v6.1h-5.4v-20.5h10.1c7.1,0,8.3,3.2,8.3,7c0,2.5-0.6,5.2-3.8,6.5l3.6,6.9h-6
		L83.3,429.5z M84.2,424.8c2.1,0,2.9-0.4,2.9-2.3c0-2-0.7-2.4-2.9-2.4h-4.5v4.7H84.2z"/>
	<path style="fill:#BA141A;" d="M100.4,428.8l-7.9-13.7h6l4.8,8.6l4.8-8.6h5.7l-7.9,13.7v6.7h-5.5V428.8z"/>
	<path style="fill:#BA141A;" d="M15,445.7h10c6.9,0,8.6,3,8.6,7.2c0,4.2-1.6,7.6-8.9,7.6h-4.2v5.6H15V445.7z M24.9,455.9
		c2.3,0,3.1-0.7,3.1-2.6c0-2-0.8-2.7-3.1-2.7h-4.5v5.3H24.9z"/>
	<path style="fill:#BA141A;" d="M34.4,455.9c0-7.9,4.5-10.5,10.8-10.5S56,448,56,455.9c0,7.9-4.5,10.6-10.8,10.6
		S34.4,463.8,34.4,455.9z M50.3,456c0-3.2-1-5.4-5.2-5.4c-4.1,0-5.2,2.2-5.2,5.4c0,3.2,1,5.4,5.2,5.4
		C49.3,461.5,50.3,459.2,50.3,456z"/>
	<path style="fill:#BA141A;" d="M58.3,445.7h5.5v20.5h-5.5V445.7z"/>
	<path style="fill:#BA141A;" d="M67.3,445.7h6l7.8,10.8v-10.8h5.3v20.5h-5.1l-8.6-12v12h-5.3V445.7z"/>
	<path style="fill:#BA141A;" d="M94.4,450.9h-6.6v-5.2h18.8v5.2H100v15.3h-5.6V450.9z"/>
</g>
<g>
	<path d="M305.9,560.8h15.8v5.2h-10.3v2.5h10v5h-10v2.9h10.4v4.9h-15.9V560.8z"/>
	<path d="M324.4,560.8h6l7.8,10.8v-10.8h5.3v20.5h-5.1l-8.6-12v12h-5.3V560.8z"/>
	<path d="M351.5,565.9h-6.6v-5.2h18.8v5.2h-6.6v15.3h-5.6V565.9z"/>
	<path d="M374.2,575.1h-3.6v6.1h-5.4v-20.5h10.1c7.1,0,8.3,3.2,8.3,7c0,2.5-0.6,5.2-3.8,6.5l3.6,6.9h-6L374.2,575.1z M375,570.3
		c2.1,0,2.9-0.4,2.9-2.3c0-2-0.7-2.4-2.9-2.4h-4.5v4.7H375z"/>
	<path d="M391.3,574.4l-7.9-13.7h6l4.8,8.6l4.8-8.6h5.7l-7.9,13.7v6.7h-5.5V574.4z"/>
	<path d="M305.9,591.3h10c6.9,0,8.6,3,8.6,7.2c0,4.2-1.6,7.6-8.9,7.6h-4.2v5.6h-5.4V591.3z M315.8,601.4c2.3,0,3.1-0.7,3.1-2.6
		c0-2-0.8-2.7-3.1-2.7h-4.5v5.3H315.8z"/>
	<path d="M325.3,601.5c0-7.9,4.5-10.5,10.8-10.5s10.8,2.7,10.8,10.5c0,7.9-4.5,10.6-10.8,10.6S325.3,609.4,325.3,601.5z
		 M341.2,601.6c0-3.2-1-5.4-5.2-5.4c-4.1,0-5.2,2.2-5.2,5.4c0,3.2,1,5.4,5.2,5.4C340.2,607.1,341.2,604.8,341.2,601.6z"/>
	<path d="M349.2,591.3h5.5v20.5h-5.5V591.3z"/>
	<path d="M358.2,591.3h6l7.7,10.8v-10.8h5.3v20.5h-5.1l-8.6-12v12h-5.3V591.3z"/>
	<path d="M385.3,596.5h-6.6v-5.2h18.8v5.2h-6.6v15.3h-5.6V596.5z"/>
</g>
<g>
	<path style="fill:#008B90;" d="M689.1,601.6H705v5.2h-10.3v2.5h10v5h-10v2.9h10.4v4.9h-15.9V601.6z"/>
	<path style="fill:#008B90;" d="M707.7,601.6h6l7.7,10.8v-10.8h5.3v20.5h-5.1l-8.6-12v12h-5.3V601.6z"/>
	<path style="fill:#008B90;" d="M734.8,606.8h-6.6v-5.2h18.8v5.2h-6.6v15.3h-5.6V606.8z"/>
	<path style="fill:#008B90;" d="M757.4,615.9h-3.6v6.1h-5.4v-20.5h10.1c7.1,0,8.3,3.2,8.3,7c0,2.5-0.6,5.2-3.8,6.5l3.6,6.9h-6
		L757.4,615.9z M758.3,611.2c2.1,0,2.9-0.4,2.9-2.3c0-2-0.7-2.4-2.9-2.4h-4.5v4.7H758.3z"/>
	<path style="fill:#008B90;" d="M774.6,615.3l-7.9-13.7h6l4.8,8.6l4.8-8.6h5.7l-7.9,13.7v6.7h-5.5V615.3z"/>
	<path style="fill:#008B90;" d="M689.1,632.1h10c6.9,0,8.6,3,8.6,7.2c0,4.2-1.6,7.6-8.9,7.6h-4.2v5.6h-5.4V632.1z M699,642.3
		c2.3,0,3.1-0.7,3.1-2.6c0-2-0.8-2.7-3.1-2.7h-4.5v5.3H699z"/>
	<path style="fill:#008B90;" d="M708.5,642.4c0-7.9,4.5-10.5,10.8-10.5c6.3,0,10.8,2.7,10.8,10.5c0,7.9-4.5,10.6-10.8,10.6
		C713,652.9,708.5,650.3,708.5,642.4z M724.5,642.5c0-3.2-1-5.4-5.2-5.4c-4.1,0-5.2,2.2-5.2,5.4c0,3.2,1,5.4,5.2,5.4
		C723.4,647.9,724.5,645.6,724.5,642.5z"/>
	<path style="fill:#008B90;" d="M732.5,632.1h5.5v20.5h-5.5V632.1z"/>
	<path style="fill:#008B90;" d="M741.4,632.1h6l7.7,10.8v-10.8h5.3v20.5h-5.1l-8.6-12v12h-5.3V632.1z"/>
	<path style="fill:#008B90;" d="M768.5,637.3h-6.6v-5.2h18.8v5.2h-6.6v15.3h-5.6V637.3z"/>
</g>
<path style="fill:#BA141A;" d="M91.1,404.6c-15.2,0-27.6-12.4-27.6-27.6s12.4-27.6,27.6-27.6s27.6,12.4,27.6,27.6
	S106.4,404.6,91.1,404.6z M91.1,356.2c-11.4,0-20.7,9.3-20.7,20.7c0,11.4,9.3,20.7,20.7,20.7s20.7-9.3,20.7-20.7
	C111.9,365.5,102.6,356.2,91.1,356.2z"/>
<path d="M441.6,561.7c-15.2,0-27.6-12.4-27.6-27.6s12.4-27.6,27.6-27.6c15.2,0,27.6,12.4,27.6,27.6S456.8,561.7,441.6,561.7z
	 M441.6,513.3c-11.4,0-20.7,9.3-20.7,20.7c0,11.4,9.3,20.7,20.7,20.7c11.4,0,20.7-9.3,20.7-20.7C462.3,522.6,453,513.3,441.6,513.3z
	"/>
<path style="fill:#008B90;" d="M812.8,608.3c-15.2,0-27.6-12.4-27.6-27.6c0-15.2,12.4-27.6,27.6-27.6s27.6,12.4,27.6,27.6
	C840.4,595.9,828,608.3,812.8,608.3z M812.8,559.9c-11.4,0-20.7,9.3-20.7,20.7c0,11.4,9.3,20.7,20.7,20.7c11.4,0,20.7-9.3,20.7-20.7
	C833.5,569.2,824.2,559.9,812.8,559.9z"/>
<polygon points="430.4,532.2 438.7,536 440,535.9 443.1,532.1 "/>
</svg>
